<mxfile host="Electron" modified="2023-06-29T23:58:23.445Z" agent="Mozilla/5.0 (Macintosh; Intel Mac OS X 10_15_7) AppleWebKit/537.36 (KHTML, like Gecko) draw.io/21.5.0 Chrome/112.0.5615.204 Electron/24.5.1 Safari/537.36" etag="gwzzq4HOEXYGm8vzpMga" version="21.5.0" type="device" pages="2">
  <diagram id="DIqfa9R5Q7alDjM5KBUw" name="Page-4">
    <mxGraphModel dx="1089" dy="686" grid="1" gridSize="10" guides="1" tooltips="1" connect="1" arrows="1" fold="1" page="1" pageScale="1" pageWidth="850" pageHeight="1100" math="0" shadow="0">
      <root>
        <mxCell id="0" />
        <mxCell id="1" parent="0" />
        <mxCell id="EeGv5rOPFj5XWAcBbfgR-16" value="&lt;b&gt;&amp;nbsp; &amp;nbsp;Conversational AI&lt;/b&gt;" style="rounded=1;whiteSpace=wrap;html=1;align=left;verticalAlign=top;" parent="1" vertex="1">
          <mxGeometry x="495" y="126" width="140" height="190" as="geometry" />
        </mxCell>
        <mxCell id="EeGv5rOPFj5XWAcBbfgR-12" value="&lt;b&gt;&amp;nbsp; &amp;nbsp; Summarization&lt;/b&gt;" style="rounded=1;whiteSpace=wrap;html=1;align=left;verticalAlign=top;" parent="1" vertex="1">
          <mxGeometry x="420" y="360" width="300" height="170" as="geometry" />
        </mxCell>
        <mxCell id="EeGv5rOPFj5XWAcBbfgR-7" value="" style="edgeStyle=orthogonalEdgeStyle;rounded=0;orthogonalLoop=1;jettySize=auto;html=1;" parent="1" source="EeGv5rOPFj5XWAcBbfgR-1" target="EeGv5rOPFj5XWAcBbfgR-4" edge="1">
          <mxGeometry relative="1" as="geometry" />
        </mxCell>
        <mxCell id="EeGv5rOPFj5XWAcBbfgR-1" value="&lt;b&gt;Users&lt;/b&gt;" style="image;aspect=fixed;perimeter=ellipsePerimeter;html=1;align=center;shadow=0;dashed=0;spacingTop=3;image=img/lib/active_directory/user_accounts.svg;" parent="1" vertex="1">
          <mxGeometry x="40" y="280" width="82.48" height="80" as="geometry" />
        </mxCell>
        <mxCell id="EeGv5rOPFj5XWAcBbfgR-13" style="edgeStyle=orthogonalEdgeStyle;rounded=0;orthogonalLoop=1;jettySize=auto;html=1;endArrow=classic;endFill=1;" parent="1" edge="1">
          <mxGeometry relative="1" as="geometry">
            <mxPoint x="490" y="220" as="sourcePoint" />
            <mxPoint x="220" y="280" as="targetPoint" />
            <Array as="points">
              <mxPoint x="220" y="220" />
            </Array>
          </mxGeometry>
        </mxCell>
        <mxCell id="EeGv5rOPFj5XWAcBbfgR-2" value="&lt;b&gt;Amazon Kendra&lt;br&gt;(Retrieval Augmente &lt;br&gt;Generation)&lt;/b&gt;" style="sketch=0;points=[[0,0,0],[0.25,0,0],[0.5,0,0],[0.75,0,0],[1,0,0],[0,1,0],[0.25,1,0],[0.5,1,0],[0.75,1,0],[1,1,0],[0,0.25,0],[0,0.5,0],[0,0.75,0],[1,0.25,0],[1,0.5,0],[1,0.75,0]];outlineConnect=0;fontColor=#232F3E;gradientColor=#4AB29A;gradientDirection=north;fillColor=#116D5B;strokeColor=#ffffff;dashed=0;verticalLabelPosition=bottom;verticalAlign=top;align=center;html=1;fontSize=12;fontStyle=0;aspect=fixed;shape=mxgraph.aws4.resourceIcon;resIcon=mxgraph.aws4.kendra;" parent="1" vertex="1">
          <mxGeometry x="522" y="160" width="80" height="80" as="geometry" />
        </mxCell>
        <mxCell id="EeGv5rOPFj5XWAcBbfgR-11" value="" style="edgeStyle=orthogonalEdgeStyle;rounded=0;orthogonalLoop=1;jettySize=auto;html=1;" parent="1" source="EeGv5rOPFj5XWAcBbfgR-3" target="EeGv5rOPFj5XWAcBbfgR-10" edge="1">
          <mxGeometry relative="1" as="geometry" />
        </mxCell>
        <mxCell id="EeGv5rOPFj5XWAcBbfgR-3" value="Generative-AI Q/A" style="shape=image;verticalLabelPosition=bottom;labelBackgroundColor=default;verticalAlign=top;aspect=fixed;imageAspect=0;image=data:image/png,iVBORw0KGgoAAAANSUhEUgAAAIEAAACBCAMAAADQfiliAAAA5FBMVEUAAAAgLT0gMDggMEAiLj0iLj4jLT0jLj4jMD0kMDwkMEAlMDohLj4iLj4iLz4jLz0jLz4gMEAgMEAgMDggMEAgMDggMEAlMDolMDokMDwkMEAkMDwkMEAgMD0gLT0jMD0jMEAjLT0jLj4jMD4jLT0jLj4jMD0jLT0jMD0iLj4iMD4iLj0iLj4kMD0iLj0iLj4iLj4kMD4iLj4iLj4jLj4jMD4iLj4jLj4jMD4jLz0jLj4jLz0hLj4jLj4jLz0jLz0jLz0jLz0iLz4iLz4iLz4jLz4iLz4jLz4jLz4jLz4jLz4jLz4hOhgJAAAAS3RSTlMAAAAAAAAAAAAAAAABAQEBARARICAhITAxQEBBQU9QUFBRX19gYGBhYW9vcHBwcX+AgI6Pj4+QkJCen5+goK6vvr/Oz97e39/u7/7H1a08AAAG0klEQVR42u1b+VvbNhjWMKEQSlMn5jBLRwtuNralccY1lgsTkvj4//+fxdZh2Tos2U7Ynif6pQW51qtX3/d+h1wAdmM3dmM3duN/PZzHjmjqwHE7G1//0ouiaMRdpxnPhYPNrm9OomQE7DrG2QzOLTZIgzkIIjxW19n1qbnN0XC5RATAP2Yd2gAyc5uhwfLgGp4Nemg5bA6JAcA5a7IpGswB2mM/QTOhj6KNfvJv1j8cInh103CLmP/bxIzMMAZsAMEQzhmboIGQfE79spe1ipd0z7XTgD0wcnMTwyXxjFc74xi10kB5mcMYJzaAfn6mRhpoD3Q4DhJPP5vsRF00pB445iMAot/XQ4N5l3qgPoIaaMh4YAkElWlwMh5YCkFFGsaJ4NgFK8kRVKMhfvfIBBUREBp8sxQCB1RGgGkInfdDsM5d5u+BoHl5696iw/843j4C4wxqGZTLmhFcua57XoDAOMPBZGHWj0CFm09p1PzrXRAcfEu0zI1xBGvK3Pm2EZw8xiYAjHZKxZYRYNY/jt8LwUY4SD1AAcHRz0kuHx//OreryQ70dILyhee6fEEPwfFF/XqgqZXGGWRhWp8m6qo1OLJd9/dKcSFJku8E2bECgrx3RlO9HAUnyasON3n8UgJB5GukanSfYMABRuFS2t3hb8gsrzWT5CC/HJrwOrlssnB3h1fIPV9VjoLpBWAaEAFBpkTrKe7uMN9zKDaAG6o+TmjgEJCIpeLuDOsJFZkDFQPAvQBgon824BKQLeNHhRgmhYRhA6DfZVPRhSEA8UbvrnnpkvxQ2xwc0ijK8PKE1+cRkN/dBZ0fis1BUD2MUwPIDESD11EwdtLSMKXmIFDIbJVE0+Dx9ZFr7IKGi1L1INY3pboEm8MoyQ/FVZokSlRDgHaX5EZriw7tqgisAgSm5N2tmSwWqiFwlis5Aovn/jg/jJODahwkTeJrKYIJ09sm+aE3imVlAcojQE3qlQyBw4/dLY/4wrA0AtIkH8oQ2HwlxsnZOmKDsgiw/A3NAkscBtxrBnjNEQxBNQS59fneSPrrORqsq96VSfcR8nGiGAGzPswNWU1EShxIOkTHF0smThQhYNfHIZMjy/AoHAmAgI0TBQiYuNA4I/Y9Pz1mAvNcioCqndySqmy0/kx2EYbJkV/sa+n1wa+8OKGFABPg96235C8/TnQQkBo6Eyc0EBAC4vsTawqN4dOeOoJMnPiij+CAEIDMLuQYgxIHiU6RqkIdgZMSgFJSHxqDQdEkRUDHibi9bWoisJkLHGgMlP8bbU/qC1ScSJNkDTu4pwmAEKYZ/2/AMCDp7pM4EaR30hoIzFc2OZ6lzxgn0FBl2ROJE1TNVCpL4z1jtO9Ed3C8OGGYQ3wvro3A4D7TTJLCYgScqkKerTt7+R55q81D0OgmJ+Av1RHEvrEsRjA7bdEYjJOu531gEBgtFxrW+VgHQVpVSKPziMLQSM76u5FD0IRaFa77VJoIQMOFKvOFO9sLowyGJlJlOgFIVuwmGwn7ypUEkVmcA4ouvuwXCkN8AJCxaa5nAn+9sIEmgvRDjaE4qaEwYGdb2NxMDmmVOgKl9TMYoNr4Q24mFz5o1XMa62cw5A4gcQ346YX/Va+iRLmK2vo0hkWu8sIy+NrRrGlRR1F1fVKRjPLiBGUwfDBBKQTPWteunDdjGezr1/VlOsvMm1MZBO+DgJJBOQJ+L606ggYlg7Lnji/m3F5adQS3XN9gnkvvWnO9tOoI+rmPnujnqDdza6Sa7OA+lUE2ort4TES9tBoQmC9fi3oO5HKN00urwxslz2UGv5e2TQT8XtqGEaR28CjqpW0WAfVmYS9tawiEvbStIcA1AdNLK4tgT1R7tFoCBGwvrRKC0ekH7lyz7c32RQjELbUSCKLV9xZLwzqHXr/ujz11BAb8zFBQI4gGqh1mpw3AzdSCjjKCZrfcx3FXbyjCfP4p29uaZzorhQjwt1HcuFYwYN8oWv2SHgXpbfWBoh000A3mwgYlhjUNUfWyT0ww/zo5AnwA0dAE5UYPHsXqx+c9bIJsrixEYOAPXV8qfCxr3aOjOD1pomLB79GblCBooH603weVhvUGMdx157nmXmwW3aXo+4NjdPsaPZig6ui/UdGf2o9Bmt7sdTo5gFcb1DCsf3AhuaLe12i7Qa5TyFhg1QNgxeGOiAPubpBOIVVLVpEAVXFYGwDqbnD+R0c1CVASh9QAFjcg/3VFdQlQEAdsAD5ehPr+oA4JKBYH5BbP1CK57w/qs0CROMS6YPM7hTVJQKE4LG44TdunOiVAKg6hz7eyxBw2dwBUh6cnJPlIMrcbu7Eb//XxL10SrsHy+KvYAAAAAElFTkSuQmCC;fontStyle=1" parent="1" vertex="1">
          <mxGeometry x="442" y="400" width="80" height="80" as="geometry" />
        </mxCell>
        <mxCell id="EeGv5rOPFj5XWAcBbfgR-6" value="" style="group" parent="1" vertex="1" connectable="0">
          <mxGeometry x="170" y="290" width="100.19" height="80" as="geometry" />
        </mxCell>
        <mxCell id="EeGv5rOPFj5XWAcBbfgR-5" value="" style="shape=image;verticalLabelPosition=bottom;labelBackgroundColor=default;verticalAlign=top;aspect=fixed;imageAspect=0;image=data:image/png,iVBORw0KGgoAAAANSUhEUgAAAU4AAACXCAMAAABNy0IIAAAA/FBMVEX////w8PD/S0u9QEPv7+99NTvy8vL29vb5+fn9/f3/SUn/R0f/PDy+QEPv9fX/RUX/QUH/ODj/XV27Njl5KzK6MTXv+Ph2Iyt6NTvEQUR8MjjOQ0W8Oz50HSa5Ki7/0NDtSEn4np73Skr/c3P/4eH/tLTbRUeXOT7kRkj+YmLhsbL36engvb3KdXf/x8f8eXn/i4v/7u6HR0z1u7vz09P/mpq+oaPOgoT3p6euPUHh2dmHNzz/4+P/kZGSOT3+YWHHZGfWkJHEVlnpy8vNvb7dpqeofoG1k5bo2dnHYmSTW2Cba2/ATVCEQkfPiYqujI7ixMWjeHvHsrOoPEDih3JpAAAOIElEQVR4nO2d+0PbthbH7cT4QRwlQHDucgkMAnejKY+UxzJWLn3QNiulLb3///9yLfkRS7FkSZZjseb8NG3ZsfVBX51zJNk2jMgcE5mNN524aaOWlTStqOlGLS9uelHTjZuJp6hp5l/Hxq+DOzZwxx7umLwO07FZugNMMmnTwH+1wrnCucK5wrnCucJZG04LWXo3UTO9G7wZteZ3E1l6N5Hhjk28SbkO7tjAHXu44/zr1NwBw4nMjU2k6fA0K3O8rOsIOU5kIKUv1Mz8oTBBmRaHY5a+UscO7pi4DlO4uR3IjDRWByRmHpPAyXM3nPNg/t+Jb7rCHbOnKxHHCjrAHA8rnCucK5w/KU6JUETcjVXibmipHhGK8OuIhyITD0W0DkiFIjsy14sMb7px08ttOlHLyW8yHXs8judNmI+QjtnXyXesrgMUx0b6h9IhC6al8S/evHk7NnDHeqbxya84pquaikzTfbe9s7O1+x4wZx6mY7N0B/4xNTs42WqG1t4a2yucpXGCl7tNZDsnYIWzNE6r2Y5wNrdfgBXOkjiDSOpI7ttQ7s8DpxaBcTGyg5fbzdR23gDdI7vmeaez1Z7jbO6+NDTPO82c6UqyKsKLFy7HhfqaSz2O7ppXRXivdavZk6g+l/uzqtk1w+nstHGcYXRf4ZTGiUsdyX13vMIphxOQUo/kTqQqOuPUaa/IHC9IHcn9A8CuIx6Kqtwr0mojEGt5i1KPovvM1XcnM/1D6ZAFY45f5Egdyf1vxnXqTuOTX+HTiAZF5mQ7T+pxdM+5Ds88qHPNbovMg+I4T3YoNGHtXiXOsP5ZPk7b2jusEidN6lF0rxLn+P7GWTZO+7Lh+5unleEcb9GkjuT+oTKc44/D/vCbs2ScYLPVaLT80V5FOP+mSh3JfXdcDU77W7+3trY2vLGXukBnzvwGtNbG6HXyX5mBkS8ApxH3xTaLJoruQpHd4onshvupB2GurfXvbcnIjnvmPgPoddcRz0Zn4+yQjUbMMWrOqFF9Lnev/HVwNN71MIIZjs6ZrGOTPo0wi8zzTiO2jn8+QThz9SVTZLpvmFJHct+eyThmzDzXa/21xPoutQMV1eyHfoKzsd7t3k5U4vxQIHUk93dKcd6/6g9Smr2P9A5UtQRy3GpkgG5M3UAVznGh1CO5q8LpGPePwznMWOtLxnnUbTSyQFv7FlCDkx3VU9udKcFpO/efMZhrg1eMDlSFc+KvN3CgB0cmUICzKKoTci+H03ZuCJjhzPlDHqd8YJwHowSof3ARgLKRnU/qc7mXiey2e/NAwgxx2vIdEFmrwprupd8gbT0slDy31JqY+45P6k0U3d0yi22ucfMxzY3m1nvyhFfxkqaR/KF4loLxoiI4WF/gCQulS2Bn9OWIrdgCnqieyv0LWbyIdMCxPvYWYYaB6D5nCYSzAynOSPsiK0pgv7uIExVKl8FCjcZZZNozxspHjtzfAski03asT7kw1wZrDjbfLmuBzhx3c4YnAnp2GRB72ZzbM/YXbqkj231v8znGOxCOzOscmUdav64Hp+WdkcEosU73PClahHCCtwJSh7bzTm50Xj/282GGgejGrgnn3gYFZ2O9072aiOMsrtVJ2/4qgfP+sb8QztPB+WDgyZXkihJ+N/gMS9vc2GzReIZpqD/1cnAS18EdC0od2u4lj+MszvtXi7lRNhB5bJxEKMKvYxCnrIy800/JuTDyMJSRH4xSoOtT13CZjrEmV61O2s4X3DGzA2EiM1vI2vFA9OhSzp9xkSmVBZtjqtpjoAdH/I7DqC4qdWhbXwF3B4zFEojU+rd0d1eKjJkIN/5VPC3izfR/IubBYEQLRglQ/+A0vhvWdZBjmz+Bx2z7O+AsMmdPBTDROnx9h2rA6WJlRFjLv9vjwhmIRvXE2k2LC6eVVwKRWv/s1nlGyWrkp5440NFhMU7wXpJmKPc/QDFO81t+1o5b/4dTJ87gihWMEoMbIIHNximawGdt9ztg4gwjxTUPzLXBwLLrxGlf8uCEQM9nECi11+Br7oEkPoNyp+MM68nrPjVrx6wHd4RL4SwT2cN/BCN66okDDQulwKQ5tr9LSx1aKHdaB8J68ge9BCIsDEQl9w5FTt3nHMI3LgqDUWywUHKM/Ou4XgmpQ9t+7+Z3gF0CkVr/bFCfR+B7PMFIRxoarIJVEbROcTBKgHb9fSc6nEkUFV4ZqUNrN+NqD++A7ZIbF0yLluG5nganVUXJr/C7EThBxxWMUqDrU7SjhN8N+C60LJdnMLqbhOPFXaAinC4HzjwyCp96O+RVewx08wIAsrQuKXVoKJnP4rSdmwdumSOL9oPrfojwmDMYJUD9zYsAZB2DP0pKHRpK5jMdcG+KSyDCov3gunFyB6PEWv7xXsYx9pygvG2dBJkOjJ+KSyDC4v1gRc9kIhcie0UJzkmLOxjNgY4O0+vMHwkuZ7svQdIBm7JxwbR4P5jyQAXnXpH0Tmba8hZ2iDksLJRee8iTp0Lq0NptC92U4V73xWGGU6flSe29YjuZJdN4mMkfspfp6EBnQejlfemontjWCRou1z3erB2n+RR3r74FunhWEQxGKdDu+cRwFUT1xLZfGt6PNbFwntpwRkyLOJklPvV2JJB6Zm2925mqkjq0dvvHK0mYMBDp8hChK6X2GOjv6nA22zv/koMZBqJrbXAuHlcSsv+oieyI52+yPIdjfXDuiaaeJFBlPJt/ydHsPah5xLV8ZIcpGGOHmMsOVAFt/yk3PIf3Kg/3l3ykEUwlg1EG6L8V8ZSS++DRyoy0vEGzzGcybdpxpRqAtmXkDpfha34mMzvfAupxJRH79RcVOGXkjp7L0genXTYYKQQqIffBg0Pbm6/nLV8Bxw4xl/1eHqi43OF+sFY4KWdnpYCWxiks975pK8ZZKrLDhzQVBCNVQEXlHgaiTA6kxVcN6GdnZaxkGioo9/6Nx/t4gvqvGljEwmr8h1IUjJQAFZP74HMy0vApzRIlo/I9Sl7egxwlrFQaKiT3ZBlem5odmcgOceVAf+GX+2Dg6IjztfQyXQVABeQe7wfrhjPgPa4kYtJ5Pb/c4epHRTjLvL8TXKhWeymgvNF98Jj0vbqvGhAvTSXfoYo/J5A0zXW1wSgxuUKJV+79aze/P/lk2KCMdKSVS+NRFqw8GKVAZdbrOeXes4mlzPoX6GIZVBCMEpNJQ9t/cfDsPWny0rSc8FVFMJIH2m5y4BzO9MUpfFxJxMQ3QNr/K+QJDyZpi9NTuA6SB1Q0DS2We/9aY5zGbVXBSA5osdyHVjU4VUR20bOzMvarENAiucP9YEPfrxoEdxUGowSoSBpaIPf+vaPzVw2A7HGlqoC2myyag4Gd7QBrSqvnqwZj8bOzMsaf1zPljh7L0vm98UG540oVAGXJPXpRhcY47cvqKiPCONNQhtwHn52FDuiF07TLHldSDpQud7QfrPdXDRQcV+I3vjS0/V8Kz0FeBzT7qkHBCy1qAEpL5nvfPP4HKur6qoHaHWIlQClyH97kdkCbBbqoqXiHuNiK09BcuSePZWlcs8O7MTeXknqKAM2N7nD14xngVHhcid8KNkDy5D5gR2ldcJrjZas9AsrM6xfl3vvocL2Rtm6clpqzs2qBLsp9eGNXiFNZZA9xFr9dqSJj5PWk3AevbGoHSkR2HE2JjwJkPVe0Q1wKKCF3eDBJ7mPxTDImS7gSRSYa93UEo9ioaSgh96HD6gCSJEamzi8Rvq52z0gOKCb33hOzA3rhNIpe9VcL0Kzc0Ysqng3O2oJRbLl5fUbuUUX0bHB6qh7kUAp0fmwpqogqwFlJZK/g7Ky45RRK6bGlvlXUgWV/1YC5VuVWeFyJ3xbz+nYciB68ksuQ5b9qYGWrIoucICx83HO/6q9aI9PQWO599OGCTBpPCtfKVkWo85V/1YD5yszl7BBzGAEUyT3aD9bss6MFd7OcHWIOI4D+FWr9k/PccAZVH1fiNywNhXKPP1zwnHDa1R9X4rcs0PZv8H3RVePE/yeCn4zYZd+uVI1lToq14y/oSOJkgorfLmvg7+6nnLpPPhmQnH7Cm7Gn9PTTkUbDs5HJ69t/OlwdkCFTVRoPkyttglFsMdDdF4CrA/os0CGc4EKHVB4zmNdvnQDODmBkaq3Z0d0E+75m4zMEuvXO4u6AXjhNMPV1CkfQuiPLfq44zeDybqPOlWTCWt2NfdsW6YBeOE0bXN5ubvh+t9tprdezgxRettXpdH3f39jcHwPBDmiyQJcNjJO906Ors+PNg46PwHaWEfIhxG636290G5t3Z7fTi9O9ieGZUh0QIEN/bIDeFDmED4/yAwDge2TdyevLi+n+7dnxgY+sC9l2Wi0VwxYOQjgKu93Id2dzdH41vdg7nExCAkEAgONQOiD8QAW9aaR/KHzc4+tOUlUR5jjRF4BoQ3Mnh5d7R9Or2/OzUThsN0KL+EaIEWVk64gT/k+t6Bcd9Guo4tDCQXg8Oju/2j863Tt8PXHgRcJr4cIt0YFlfdVADCf5SgEQANu2HA+O3L3Ti4uj6X6I+Pz87Gw0Oj6+Oz7exOwu/Fej49Ho7Oz8/PZqfzo9CkUM8XnhdexYBfM7pn92VB5nHpklLNBx4SS/kxlZopkgBITN/pY9H3Be/GMuxz8nTtxx8rXYBKeJOSavs8LJh5PzoL5eOIv3isrcDfcXsOVxatGBinYyy+0LPj/HCr9qoDILznXs4I4ru47eC3S5wuXTF+6YPV2JOFbQgVpr9hXOFc4VzhXOfyZOvQIj5tjEHSfXYT73oEcHCrJTZrb9c6TxtBUlIo3HfkUb96sik5x59Fyge7Y4KRP5/wEWOIs5AY/c6wAAAABJRU5ErkJggg==;" parent="EeGv5rOPFj5XWAcBbfgR-6" vertex="1">
          <mxGeometry x="50.19" y="57.39999999999998" width="50" height="22.6" as="geometry" />
        </mxCell>
        <mxCell id="EeGv5rOPFj5XWAcBbfgR-4" value="&#xa;Streamlit&#xa;Python App" style="shape=image;verticalLabelPosition=bottom;labelBackgroundColor=default;verticalAlign=top;aspect=fixed;imageAspect=0;image=data:image/png,iVBORw0KGgoAAAANSUhEUgAAA4QAAAIbCAYAAACzCVAZAABD00lEQVR42u3d+ZekdX0v8PuPXBWXJJrk6kkCKG6oUVDcEkyuuOOWGMH1Ji4zDIsw7CirIAKCIAiyCT37zjAD03v39D7dPdPTy/Q+3dPd02t9bndPNCjbLD1VTz3Pq855/5CTc+BFfer51udtddXzv2KJHwcPHlzS8PHx8fHx8fHx8fHx8Z0c3/8yED4+Pj4+Pj4+Pj4+PoXQQPj4+Pj4+Pj4+Pj4+BRCA+Hj4+Pj4+Pj4+Pj41MIDYSPj4+Pj4+Pj4+Pj08hNBA+Pj4+Pj4+Pj4+Pj6F0ED4+Pj4+Pj4+Pj4+PgUQgPh4+Pj4+Pj4+Pj4+NTCA2Ej4+Pj4+Pj4+Pj49PITQQPj4+Pj4+Pj4+Pj4+hdBA+Pj4+Pj4+Pj4+Pj4FEID4ePj4+Pj4+Pj4+PjUwgNhI+Pj4+Pj4+Pj4+PTyE0ED4+Pj4+Pj4+Pj4+PoXQC4aPj4+Pj4+Pj4+Pj08h9ILh4+Pj4+Pj4+Pj4+NTCPn4+Pj4+Pj4+Pj4+PgUQj4+Pj4+Pj4+Pj4+Pj6FkI+Pj4+Pj4+Pj4+Pj08h5OPj4+Pj4+Pj4+Pj4zvmQugJ5OPj4+Pj4+Pj4+Pjy6ZPIeTj4+Pj4+Pj4+Pj41MIDYSPj4+Pj4+Pj4+Pj08hNBA+Pj4+Pj4+Pj4+Pj6F0ED4+Pj4+Pj4+Pj4+PgUQgPh4+Pj4+Pj4+Pj4+NTCA2Ej4+Pj4+Pj4+Pj49PITQQPj4+Pj4+Pj4+Pj4+hdBA+Pj4+Pj4+Pj4+Pj4FEID4ePj4+Pj4+Pj4+PjUwgNhI+Pj4+Pj4+Pj4+PTyE0ED4+Pj4+Pj4+Pj4+PoXQQPj4+Pj4+Pj4+Pj4+BRCA+Hj4+Pj4+Pj4+Pj41MIDYSPj4+Pj4+Pj4+Pj08h9ILh4+Pj4+Pj4+Pj4+NTCPn4+Pj4+Pj4+Pj4+PgUQj4+Pj4+Pj4+Pj4+Pj6FkI+Pj4+Pj4+Pj4+Pj08h5OPj4+Pj4+Pj4+Pj4zv2QugJ5OPj4+Pj4+Pj4+Pjy6ZPIeTj4+PjS6xvePhg9A0MRXffYHT09EdrZ180dfRGXXtPVO/pjvLmrniuYX9s390RW2r2xfrK9lhT3hary9rimcbe2NHcF7v29EdF+2BU7xuK3fuHo6HrYDT3jERb76HY1z8WXUPjceDgRAyMTsb41Iz58vHx8fEphAbCx8fHx7eUvvHJmWjvOxSVewdjW0NvlFR0xkM72uPOTc3x05L6uOzR6vj2PTvjq7c/E5++cXN89OoNceala+K0ZSXxDz9+Oq85bXlJvP8na+Nj12yM827aFl/7xY747n274gf3Px+XPVIe1/++Kn6+Znfct7khHt3RHOsq2heLaXtXXwwND3v98fHx8fEphAbCx8fHlw3fXC63+MlafefB2FJ/IB55bm/cuq4xLvldVXzjrufiUz/dEu+ZL3b5LnWFyunzZfKsleviMzdtiQvu2hEX/7Ysbiqpifu3NC5+armrsXPxU87BoWGvPz4+Pj4+hdBA+Pj4+JLvW/jUq2HvgcVPwu7aUB+XPFwWX/n5M/HRazYuFqCslL0l/RRyWcni87dQmlc+URO/3ta6WKhbe0djambO64+Pj4+PTyH0guHj4+PLr6+zdyB21u+PR55tjhueqo7v/GpnnHv9pjhjxSolLo85ddnTcc7VG+Pff7kzLn+8Ju6bL4ub63qi5cBoTM/OuT74+Pj4+BRCPj4+Pr4T87V39y9+4nfLqtrF7+59+Mr1ylgR5B0XrYrP3/pMXPlEbTxZ1rFYEufmcq4PPj4+Pj6FkI+Pj4/vpR+T07Oxq3Ugbl5VE9+6e0ecfeU65SpFOfOyNfFfD5TFg9uaFr+f6Prg4+Pj41MI+fj4+DLsW/gO2kIBvH190+IvZPqTz2zlX3+6efFPfhduy+H64OPj4+NTCPn4+Pgy4Fu4pcM9W1oUQPmTnHfjlrhnY/3inwi7fvn4+Pj4FEI+Pj6+lPhyuVi8yfotaxvi3Bs2Kz/yqrfDuPDuHbGtdp/rl4+Pj49PIeTj4+MrVt/Cj4hc93RdfPiqDYqOHFc+e/PWePK5PTE0NOz65ePj4+NTCPn4+PiS7js8Pbv4i5Ln/3y7QiNLlo9dsyEe2NoYgy9TDF2/fHx8fAqhgfDx8fEV0NcxMBZXPVkb7710jQIjJy3/dN3GKCltdf3y8fHxKYQGwsfHx5cEX117T/zoN7vitOUlCovkLV+8dVs8W9fh+uXj4+NTCA2Ej4+PrxC+xSL4gCIohc2yB0ujs3fA9cvHx8enEBoIHx8fXz58vQNDcfUTlYu/BKmQSBJy1sp1saX+gOuXj4+PTyE0ED4+Pr6T6Vtf0R7nXL1eCZFE5kcPVsTw+JTrl4+Pj08hNBA+Pj6+pfTt6+mP//z180qHJD4fuXpD1HQMu375+Pj4FEID4ePj41sKX2lTZ3zkKp8KSvHk7ReVxEM72l2/fHx8fGkshJ5APj4+vvz5VlV2xjsvXq1kSFFm4VPtA/1Dzhc+Pj6+FPkUQj4+Pr48+HK5iBtK6pQKKfp85qYtsbe73/nCx8fHpxAaCB8fH9/R+BbK4BWP1ygTkqqb2Td19Dpf+Pj4+BRCA+Hj4+N7Nd+1T+1WIiSVt6aobu12vvDx8fEphAbCx8fH93K+G1fXKw+S2rzvsjVR3tzlfOHj4+NTCA2Ej4+P788fvy/rKOiy/uGrNsTlj1XHr7buiZKKzti1pz8au0ZiR3Pfou2uzS2x7KGKOHN+qVdu5HjzwcvXRl17j/OFj4+PTyE0ED4+Pr4/PNp6D8W7CvBrov94+bq4aU3DMd03bmY2t1gSL3+8Js5YsUrJkWPOOVetjz37+5wvfHx8fAqhgfDx8fFNTs/Gv/5sa14X8oVbWdyytiHGJmdO6DnpHp5Y/NTw1GVKjhxbzr1+U3T09Dtf+Pj4+BRCA+Hj48u275rf5/dHZL71q+ej9+DhJX1udu8fjnNv2KzoyDHl/Nu2xeDQsPOFj4+PTyE0ED4+vmz6Fv5U9LTlJXlZvhc+xVu4t+Hcwn0tTsLj0OGZ+Obdzyk6cky55olK5wsfHx+fQmggfHx82fRd+Kvn87J0L5TOx3bti5P9mJvLxVVP1io6ckxZVdbmfOHj4+NTCA2Ej48vW74dTX15W7h/va018vlY+F6hoiNHm/deujoa9h5wvvDx8fEphAbCx8eXHd8Xb9uel2X7oocrI9+PqZm5+Pytzyg7ctT5wq3bYnjY+cLHx8enEBoIHx9fBny7GjvzsmR/5uZti+WsEI+FH65ZuK2FsiNHm/s2Nzhf+Pj4+BRCA+Hj40u/b9mDpXn5EZmytoEo5OPBZ9sUHTnqvOeS1dHa2ed84ePj41MIDYSPjy+9vv0HBvJyQ/cL73k+Cv1YuIn9J67bpOzIUefb9+x0vvDx8fEphAbCx8eXXt8DWxtP/q+KLiuJxq6RSMJjTXWXoiPHlA2V7c4XPj4+PoXQQPj4+NLpu/DuHSd9oV74wZqkPBbue/gB3yWUY/mBmVu2Ol/4+Pj4FEID4ePjS5+vb2Ao3pmHPxe9a3NLJOlx8SNVio4cUxZuy+J84ePj41MIDYSPjy9VvrXl+fmRlT0HRhNVCDfu7lFy5JjypZ9vd77w8fHxJbEQegL5+Pj4jv9x3VO7T/oi/ZGrN0TSHhNTs3Ha8hJFR44p6yvanS98fHx8CfMphHx8fHwn8Dj/9mdP+hL99Tt3RhIfZ125XsmRY8oFd+1wvvDx8fEphAbCx8eXDt/cXC7eefHqk75EL/9tZSIL4edueUbJkWPK6ctLou2/70vofOHj4+NTCA2Ej4+vqH0tB0bzskTfvKYhkYXwO/fuUnLkmHP72t3OFz4+Pj6F0ED4+PiK3/dU+f68LND3bWtNZCH0S6NyPPmn6zY6X/j4+PgUQgPh4+Mrft+Nq+vzskAv/HuS+LjwV88rOHJcea5hv/OFj4+PTyE0ED4+vuL2/eA35XlZnpP6HcLzbtqm3Mhx5ZZVtc4XPj4+PoXQQPj4+Irb94Xbtudlef73XybzV0b/8fJ1yo0cV86/bZvzhY+Pj08hNBA+Pr7i9n3wivwUog9flbz7EB4cn4pTlyk2cnx5+0Ul0dM/6Hzh4+PjUwgNhI+Przh9h6dn87pAN3aNJKoQPl2xX7GRE8qa8jbnCx8fH59CaCB8fHzF6esaGs/r8nzHhqZEFcJ8fX9S0pvrnqxyvvDx8fEphAbCx8dXnL6FT+zyuTyfd/O2xJTB6dm5eO+la5QaOaFccNcO5wsfHx+fQmggfHx8xekrbR3I6/K88H29XfP/ziQ8Ht65V6GRE84nrt3ofOHj4+NTCA2Ej4+vOH2bdvfkfYFe+FXTQj8mpmbjQyvXKzRywjlteUn0DQw5X/j4+PgUQgPh4+MrPt+TZR0FWaLX13QXtBD+YmOzMiNLlqo93c4XPj4+PoXQQPj4+IrP99CO9oIs0B+5ekMMjk0VpAw294zEuy9ZrcjIkqWktNX5wsfHx6cQGggfH1/x+e7f3lqwJfqrd+yImdlcXsvg8PhUfOzajUqMLGke3t7sfOHj4+NTCA2Ej4+v+Hz3bt1T0EX68sdr8lYGZ+dy8fU7dyowsuS5Z2O984WPj49PITQQPj6+4vPdtbml4Mv0yidqFsvayXwcOjwTF9zzvPIiJyW3ra51vvDx8fEphAbCx8dXfL6k/LjKv925M0Ympk9KGewYGItP/XSL4iKJvDm984+Pj49viQqhJ5CPj4/v2HPj0zWJWao/fu2m2Fp/YMmel7lcLh4v7Yj3/2St0iInNVc9Wet84ePj4yuwTyHk4+PjO4789KnqxC3XC58W1nee2PO0vbE3/vVnW5UVydufPTtf+Pj4+BRCA+Hj41MIl+pm38tK4mu/2LH4K6idg+NH9Tw0dY/EHRua4rybtykpohA6//j4+BRCA+Hj4+Mr1kL4wpy67OnF7wB+595di79KulD6HtzRHreta4xLH62OC+95Pj56jVtJiELo/OPj41MIDYSPj48vdYVQRCF0/vHx8fEphHx8fHwKoYhC6Pzj4+PjUwj5+Pj4FEIRhdD5x8fHx6cQ8vHx8SmEIgqh84+Pj08hNBA+Pj4+hVBEIXT+8fHxKYQGwsfHx6cQiiiEzj8+Pj6F0ED4+Pj4FEIRhZCPj49PITQQPj4+PoVQRCHk4+PjUwgNhI+Pj08hFFEI+fj4+BRCA+Hj41MILfQiCiEfHx+fQmggfHx8CqGIKIR8fHx8CqGB8PHxKYQiohDy8fHxKYQGwsfHpxCKiELIx8fHpxAaCB8fn0IoIgohHx8fn0JoIHx8fAqhiCiEfHx8fAqhgfDx8SmEIgqh84WPj4+vsIXQE8jHx8d37I/b1jVa6EVOMJc8XOZ84ePj4yuwTyHk4+PjUwhFFELnHx8fn0JoIHx8fHxH+xgen4r2vkN/kprW7iXNn//zTzRZ892zpUXpUgidf3x8fHwKIR8fHx9fFn1Ple9XuhRC1wcfHx+fQsjHx8fHpxCKQuj64OPj41MI+fj4+PgUQlEIXR98fHx8CiEfHx8fn0IoCqHrl4+PTyE0ED4+Pj4+hVAUQtcvHx+fQmggfHx8fHwKoSiErl8+Pj6F0ED4+Pj4+BRCUQj5+Pj4FEID4ePj4+NTCEUh5OPj41MIDYSPj4+PTyEUhZCPj49PITQQPj4+Pj6FUBRCPj4+PoXQQPj4+Pj4FEJRCPn4+PgUQgPh4+Pj41MIRSHk4+PjUwgNhI+Pj49PIRSFkI+Pj08hNBA+Pj4+PoVQFEI+Pj4+hdBA+Pj4+PgUQlEI+fj4+BRCA+Hj4+PjUwgVQtcHHx8fn0JoIHx8fHx8CqFC6Prg4+Pjy38h9ATy8fHx8aXR9/D2ZqUr4Vn5RI3rg4+Pj6/APoWQj4+Pj08hFIXQ9cvHx6cQGggfHx8fn0IoCqHrl4+PTyE0ED4+Pj4+hVAUQj4+Pj6F0ED4+Pj4+BRCUQj5+Pj4FEID4ePj4+NTCEUh5OPj41MIDYSPj4+PTyEUhZCPj49PITQQPj4+Pj6FUBRCPj4+PoXQQPj4+Pj4FEJRCPn4+PgUQgPh4+Pj41MIRSHk4+PjUwgNhI+Pj49PIRSFkI+Pj08hNBA+Pj4+PoVQFEI+Pj4+hdBA+Pj4+PgUQoXQ9cHHx8enEBoIHx8fH59CqBC6Pvj4+PgUQgPh40uzb2hoOJo7emP77o54bGdL3LF2d1z+u4r47q92xjfufDbOv21bfOamLXHuDZvinKvXx1kr1/1JPnzVhiXNn//zTzR8yfK977I1SpdC6Hzm4+PjUwj5+PgK4ZuZzUV5c1c89ExTXPZIeXz+lq1xxopVlmARUQj5+Pj4FEID4eNLo6+t91A8sL0tLrjn+XjnxastvCKiEPLx8fEphAbCx5dW31wuF8+19McVj9fER6/ZaMEVEYWQj4+PTyE0ED6+tPs6Bsbi1nWNcc7VSqCIKIR8fHx8CqGB8PGl3jc3l4s11V3xlTuetciKiELIx8fHl5ZC6Ank4+N7JV/fwFDcv6UxPn7NBgusiCxpLnm4zPnMx8fHV2CfQsjHx/eSvt75IviLdXWLtwOwuIqIQsjHx8enEBoIH19GfAv3CDz7SkVQRBRCPj4+PoXQQPj4MuMra+qKL926zaIqIgqh9w8+Pj6F0ED4+LLiG5+cWbx1xGnLSiypIqIQev/g4+NTCA2Ejy8rvup9Q/GJ6zZZTkVEIfT+wcfHpxAaCB9fVnyzc7m4fUNTnLbcp4IiohB6/+Dj41MIDYSPLzO+7uGJOP/n2y2kIqIQev/g4+NTCA2Ejy9Lvpp9Q/GhK/yCqIgohN4/+Pj4+BRCPr5M+dZUd8UZK1ZZREVEIfT+wcfHx6cQ8vFlyfeLjc0WUBFRCF/4KH/LH5Mre/OS5oX/7ONKxd9EVJ0aUXNmRN05MVP7zzFd97mYavpuHG7/WYx3PRGjfZVxcHjA+y8fH59CyMfH9/KPXC7iJ49VWz5FRCH888eu/138KX1dzFZ/ICabfxxjXb+PkeEe7798fHwKIR8f3/+Uwcsfr7F4iohCmNZC+KKCeErM1H4iDu+9NUYG93r/5ePjUwj5+LLsu+rJWkuniCiEWSqEf1IO3xDTDV+Nsa6S+edsyPsvHx+fQsjHlyXftU/ttnCKiEKY5UL4gsxVviPGO379x2Lo/ZePj08h5ONLse/29U2WTRFRCBXCF2W26n0x3vmY918+Pj6FkI8vrb611V0WTRFRCBXCV079JyMmmr3/8vHxKYR8fGny1XcejHdevNqiKSIKoUJ4VN8xjJ6fzz8Rc95/+fgUQgPh4yt2X//oZHz4qg2WTBFRCBXCY/+0cLLd+y8fn0JoIHx8xeqbmc3Fl36+3YIpIgqhQnh8KX/L/JvUVu+/fHxZLISeQD6+4vfd8JQbz4tI8WXlEzUFPZ8VwRffw3Bi7x3ef/n4MuZTCPn4ity3o64jTlteYrkUEYVQIVySTLX88EX3LfT+y8enEBoIH18CfQf6h+Lj1/jeoIgohArhEpfCxm/OP0fD3n/5+BRCA+HjS7Jv4fs3lkoRUQgVwpNSCpu/7/2Xj08hNBA+vqT6du3pt1CKiEKoEJ7UTDb/yPsvH59CaCB8fEnzzc3l4tM3brVQiohCqBCe9Bxuvcb7Lx+fQmggfHxJ8j22a59lUkQUQoUwT3lNjHU+6f2Xj08hNBA+viT4xiZn4kNXrLNMiohCqBDmLbmyN8doX5X9gI9PITQQPr5C+25e02CRFBGFUCHMe+aq3xsjQ132Az4+hdBA+PgK5esZnogzVqyySIqIQqgQFiTTjf9hP+DjUwgNhI+vUL7rntptiRQRhVAhLGjGux63H/DxKYQGwseXb9/B8al418WrLZEiohAqhIX9PmHF22JkcK/9gI9PITQQPr58+n6xsdkCKSIKoUKYjD8dbfiq/YCPTyE0ED6+fPkOT8/GP17ul0VFRCFUCJOTsc7f2w/4+BRCA+Hjy4fvtzvbLY8iohAqhMn61dGq98TB4QH7AR+fQmggfHwn23fuDZstjyKiECqEicvhvbfaD/j4FEID4eM7mb7ajmGLo4gohAphMn9gpvyvY2Rwn/2Aj08hNBA+vpPlu+rJWoujiCiECmFiM9n8Q/sBH59CaCB8fCfDNz07Fx/wYzIiohAqhElO2Rvn37D67Ad8fAqhgfDxLbVvc12PpVFEFEKFMPnp+In9gI+vWAuhJ5CPL7m+b9+z09IoIqnNpQ+XF/Z8VuSW7ruEpX8RI4Pt9gM+viL0KYR8fAn19Q4MxRkrVlkaRSS1ufKxCoUwTd8l3HOp/YCPTyE0ED6+pfKtKW+zMIpIqnNjSY1CmKZPCcv+KkaGu+0HfHwKoYHw8S2F7/LfVVgYRSTVuXNdnUKYskzs/YX9gI9PITQQPr6l8H3i2o0WRhFJde7f0qgQpiyzVe+3H/DxKYQGwsd3or6GvQcsiyKS+jy2s0UhTGHGejbZD/j4FEID4eM7Ed99mxssiyKS+myobFcIU5jphq/ZD/j4FEID4eM7EZ/bTYhIFtK474BCmMaUnhIjg3vtB3x8CqGB8PEdr++Dl6+1LIpIqrNwW52h4WGFMLU/LnOH/YCPTyE0ED6+4/H5/qCIZCHn3rCp8Oez4nbyflym9mP2Az4+hdBA+PiOx/fojmbLooikPgt/Gq8Qpjuj/XX2Az4+hdBA+PiO1feT35VbFkUk9bn+99UKYcpzuPUq+wEfn0JoIHx8x+r7zE1bLIsikvqsLW9TCFOeueoz7Qd8fAqhgfDxHYuvd2AoTl9eYlkUkVTntPlzrqdvUCHMwp+NDjTYD/j4FEID4eM7Wt8zuzssiyKS+nz25q3JOJ8VtsT+2qj9gI9PIfSC4cuk7/a1uy2LIpL6XPNEpUKYkczUf85+wMenEBoIH9/R+tyQXkSykPUV7QphRpIrfVMcHO6zH/DxKYQGwsd3NL4PXrHOsigiqc4HfrI2BgaHC38+z40rbHnKWNcq+wEfn0JoIHx8r+Zr3OeG9CKS/lz2SHkyzufpPmUtT5ls/qH9gI9PITQQPr5X8z26o8WyKCKpz476/ck4nw+3KWv5uv1E1bvsB3x8SS6EnkA+vmT4rn3KD8qISLrzT9dvTsz5fKh3p7KWz0zutR/w8SXUpxDy8SXE94XbtlsYRSTVuXNTc2LO57GeDUpaPnPgbvsBH59CaCB8fC/3mJvLxRkrVlkYRSS1edfFq+Pg+FRyCmHnk0paPtP0efsBH59CaCB8fC/3aO87ZGEUkVTnuqd2J+p8nuj4tZKWz5S9MSI3bT/g41MIDYSP76UeG2q7LYwiktqcvrwkeoYnEnU+T+65TEnLdw6V2Q/4+BRCA+Hje6nHHRuaLI0iktr86De7Enc+T9efr6DlOz132A/4+BRCA+Hje6nHfz1QZmkUkVTmHRetit1tPYk7n+eq36ug5TstX7cf8PEphAbCx/dSj3Nv2GxxFJF0fnfwyarknc/DAxGlr1fQ8p3Kv7cf8PEphAbCx/fnj6mZuThteYnFUURSl7OvXBcH+ocSdz6P9lUpZwW7H2GH/YCPTyE0ED6+Fz6aukcsjiKSyjzxXEsiz+fxricUs0Jl4FH7AR+fQmggfHwvfKyq7LQ4ikjq8vU7tif2fJ7cc4liVqjs/bH9gI9PITQQPr4XPm5a02B5FJFU5QM/WRutnX2JPZ9na85WzAqV3WfZD/j4FEID4eN74ePb9+6yQIpIqrKmvC2x5/PIYMd8MXmtYlaolL4uYvaQ/YCPTyE0ED6+Pzw+es1GC6SIpCYrH61I9Pk83vmIUlbojDxjP+DjUwgNhI9v4TE+OWOBFJHU5DM3bYn+waFEn89Tzd9XyAqdrp/aD/j4FEID4eNbeNR3HrREikgqcs5V61/0vcEkns9zle9UyAqdps/ZD/j4FEID4eNbeKyv7bZIikjR532XrYma1u7En8/uP5iQlL9lfoJz9gM+PoXQQPj47tvWapkUkaLOGStWxbN1HUVxPk/uuUwZS0omGuwHfHwKoYHw8V31ZK2FUkSKNu+4aFWsKmsrkvN5KOYqTlXEkpK+B+wHfHwKoYHw8X3rV89bKkWkKPPOFatifWV70ZzPY92rlbAiukG9/YWPL4+F0BPIx1c43z9fv8liKSJF+J3BtVG1d6i4zufWC5WwBGWm9hP2Az6+hPgUQj6+AvoW/hd2y6WIFFM+dMW6aO4eKa7zeeFG6GVvUsQSlFz5X9sP+PgUQgPhy7avs3fAcikiRZUv/Xx79AxPFN/53HuvEpbAjA402w/4+BRCA+HLrm/hJ9otmCJSLLnu6bqYmc0V3/mcm4moersClsCMdZXYD/j4FEID4cuub2vtPkumiCQ+7710TWyo7S7e87n/IeUroTnc/jP7AR+fQmggfNn1PbazxbIpIonOd+7dFd1DE8V7PudmI6rfpXwlNFON37Qf8PEphAbCl13fXRvqLZwiksictXJdbNzdU/zn88CjileCM1v9IfsBH59CaCB82fVd92SVxVNEEpW3X1QSKx+tiJ6+wRScz3MRNWcqXkn+pdHSN87Pcsh+wMenEBoIXzZ9Kx4qtYCKSCLyjotWxSUPl0VTR296zuf+3ypdxfBLo33V9gM+PoXQQPiy6fv+fc9ZREWkoDljxaq47JHyaNnfm67zeWY4ouKtClcRZLzzd/YDPj6F0ED4sun7xp3PWkhFpCD59I2b456N9bG3uz+d53P7D5StYvml0dYr7Qd8fAqhgfBl0/eFW7ZaTEUkbzn7ynVx9eOVUbmnO93n86Hy+aLxGmWrSDLd8BX7AR+fQmggfNn0nXv9JkuqiJy0nHnpmvj2PTvj3k0NUdvWk43zeeE2E7vPVrSKKHNV77Ef8PEphAbCl03fws+6W1pF5ETznkvWxGdv2Rb/+evn46aSmnjiuZaoaOmKoeHh7J3PB36pZBVbSk+Jg8MD9gM+PoXQQPiy51v4X+8ts5KvfGjl+vjKz5+Jix4qXfyzwZvni8PdG+vjoWea4vfP74kNle2xtXbfMaWsbWBJc6z//iz6avYNxZ4Do9E9PBEjE9MxO5dzPv/hMb47ouyNClYx/tJof539gI9PITQQvuz53nXxKkVFTsrtA772ix3xs1X18URpR1TPF4iF4uD65Uu1b/ZQRM17lKsizVj3OtcHH59CaCB82fMtLO4KjJxoTl32dJx387bFAvhsU19MTM26fvmy59vzTcWqiDPRcY/rg49PITQQvuz5FhZ5hUaOtwT++y93xlPl+2NobMr1y5dtX9/9SlWRZ7L1ctcHH59CaCB82fINDQ0rNnLM+dg1G+OODU3RNTTu+uXjW3iM1/neYBpuPdH4H64PPj6F0ED4suXrGxhScOSoctqykvjhb8pj157+yOVcv3x8f/RNdUVUnaZQpSCztR93ffDxFbIQegL5+PLvOzw9q+zIKxfB5SXxg/ufj+rWbtcvH9+fP2aGY676TGUqLak63fXBx1dAn0LIx1cA39TMnNIjL1sEVzxSGfv6x1y/fHwv9ZibiKj/pBKVqnsRvn5+sDnXBx+fQmggfNnxzc3llB95Uf7zgbLoGBhz/fLxvdwjNxPR/CUFKo2ZGXJ98PEphAbCly2fAiR//LGYazfGM429rg8+vlf+aDCi7buKU1oz0eT64ONTCA2EL1u+hT8NVIayndPnXwM3r2lY/E6p64OP75U+GZyO2PPvSlOaM7Ld9cHHpxAaCF+2fGescGP6LOf825+NPQdGXR98fK/6weBYROOnFaa0Z+Ax1wcfn0JoIHzZ8r330jWKUUZvKr/wqeDC90hdH3x8r/KYGYyoO0dZykJ67nB98PEphAbCly3fh6/aoCBlLO//ydrY1tDr+uDjO5rHVGdEjVtLZCb7r3R98PEphAbCly3fuTdsVpIylC/etj26hydcH3x8R/MYeSai4m1KUpay98euDz4+hdBA+LLl+8J8QVCUspGrnqyN6dk51wcf36s+5q+TrhvmC8JrFaSsZc8Frg8+PoXQQPiy5fvGL3cqSxnI3ZtbXB98fEfjmxmIaPyMYpTVNH3R9cHHpxAaCF+2fP/v/jKFKcVZuK3I46Udrg8+vqPxHdoVUXWqUpTl1H/S9cHHpxAaCF+2fBc/UqU4pTQLtxTZXNfj+uDjezXf7OiR7475E1Gpfb/rg49PITQQvmz5flpSrzylMAu3EylvG3B98PG9mm/wqYjKv1eE5EgWPiF2ffDxKYQGwpcl371b9yhQKfxksKJ90PXBx/dKvoXbSTR/UQGSP03F/3F98PEphAbCly3fU+X7laiUfWdwa/0B1wcf38v5ZoaO3Guu7C+UH3lxyt/s+uXjUwgNhC9bvmeb+hSpFOW3zzS5Pvj4XiIjg+0xuefi+SL4V0qPvHzK3uj65eNTCA2EL1u+hq6DilRKcvva3a4PPr4XFcG2mGxZEblSnwjKUaT0da5fPj6F0ED4suXrPXhYmUpBVj5a4frg4/tjhmOse11MN/7HfBF8o5Ijx5aYc/3y8SmEBsKXHd/sXG7xe2dKVfHmS7dti8GhYdcHX+Z9owMNcbj1ypirfLtSI8ef3JTrl4+vEIXQE8jHVzjfh69cr1gVaT5w+brFT3ldH3yZ9U00Rhy4M6LxPPcRlCXJyPAB1y8fXwF8CiEfXwF9X7p1m3JVhDl12dOLPwrk+uDLlG96/jU/8GhE23ciKv9BgZElz8HhPtcvH59CaCB82fL94P5dClYR5pa1Da4PvvT+KuhAy+L3AKP33oi9F0U0floBlDwVwkHXLx+fQmggfNny/fSpagWryPLl25+Nublcxq+P4cXvjMXBLRH9D0ccuDui66aI/SvnC8SPI9q+N5/vHnOmGr+5pDkeQ1Z8Cz/6Ml33+Zip/aeYrf5gzFWeEbnyt0aUvkExkcIVQvsBH59CaCB8WfP9ZmujklVEeftFJdHWdyhj18dwHOp9Lg6337hYImZrznIbARE5KbedsB/w8SmEBsKXOd/Gqr2KVlH9qWhjJq6PhT8ZnOi4J6Yb/i1yFW+1qIpIHgrhG+wHfHwKoYHwZc+3Z3+folUk+fi1m2Jyeja918fwQIx3/i5m6j575AbRFlQRyWNypX9pP+DjUwgNhC+bvvdeulrhKoK81K+KpuH1N9q/OyZblh35/pilVEQKVQgr3mY/4ONTCA2EL5u+L7r1ROLzg9+Up+71N9pfc+SHTUpPsYyKSMEzV/Vu+wEfn0JoIHzZ9K34bZnSleCcvrwkuobGU/P6G+2rni+C/+HPQkUkUZmtOdt+wMenEBoIXzZ992ysV7wSnEt+V5WO19/c4Zjcc4lPBEUkkZnZ/Sn7AR+fQmggfNn0bar2S6NJzWnLS6JjYKz4X38Ht0ZUv9PSKSKJzXT9l+wHfHwKoYHwZdPX2umXRpOaix6uLO7X38z8P6P1QsumiCQ+U40X2A/4+BRCA+HLru99l61RwJL26eCyktjbP1a8r7+xmojqd1g0RaQoMtmy3H7Ax6cQGghfdn1f8kujicuPHqwo3tdf3/2LN3m2ZIpIseRw+432Az4+hdBA+LLru+RhvzSatJS3DRTf629uMqLtu5ZLESm6jHc8YD/g41MIDYQvuz6/NJqsfOK6TZHLFdnrb/ZQRMO/WCxFpCgz1r3OfsDHpxAaCF92fZtr9iliCcqdm5qL6/U3MxhR9xFLpYgUbUb7Ku0HfHwKoYHwZdfX3t2viCXox2QOHJwontffVFdEzZkWShEp6owMddoP+PgUQgPhy7bvg1esU8gSkG/e/VzxvP6muiOq3m6ZFJGiTq70L+wHfHyFLISeQD6+ZPi+9+tShSwBeXRHc1G8/kaG9sds1fsskyJS/Nn9IfsBH18BfQohH19CfPdsaVHIEvDnoh09/cl//Q33xUztP1kiRSQdafm6/YCPTyE0ED6+srYBpazAOe/GLUXw+huK6YavWCBFJD3Zv9J+wMenEBoIH9/E1GyctrxEMStgrnuyKvGvv8nWKy2PIpKu9D1gP+DjUwgNhI9v4XHezdsUswJmU/XeRL/+xnrWzy9Pr7U8iki6MvKs/YCPTyE0ED6+hcfKJ2oUswLljBWrom9gKLGvv5HB9pir+HuLo4ikL1M99gM+PoXQQPj4Fh5Ple9XzgqUr92xPdGvv5n6z1oaRSR9qfhb+wEfn0JoIHx8f3i09x1SzgqUa56oTOzrb2LfLy2NIpLONP5f+wEfn0JoIHx8f3jkchHv/8laBa0A+e0zTYl8/S38qWiu/G8sjSKSzuy7xH7Ax6cQGggf3wsfF/7qeQWtANlRvz+Rr7+ppm9bGEUkvel/2H7Ax6cQGggf3wsfv9jYrKAVIF29g4l7/R3q2Tq/ML3Gwigi6c34bvsBH59CaCB8fC987GjuU9DynLNWrkvg6y8Xs9UfsiyKSHpTesr8UTdtP+DjUwgNhI/vhY/Rw9Nx6jIlrdh+YXTJX39DayyLIpLu1H3UfsDHpxAaCB/fSz0+9dMtiloes+zB0uS9/hYWJQujiGTwB2XsB3x8CqEXDF/mfZc/Vq2o5TFXPFqRrNffyDaLooikP4NP2w/4+BRCA+Hje6nH2uouRS2P+dnT1cl6/TX8i0VRRNKf6QP2Az4+hdBA+Phe8utjY1O+R5jH/GJdXXJef2M1lkQRSX+q3m4/4ONTCA2Ej++VHufdvE1Zy1Pu39KYnNffvhUWRRFJf1ovtB/w8SmEBsLH90qPn62qV9bylEd3tCTj9Zebiah4m0VRRNKfvt/YD/j4FEID4eN7pYf7EeYva8rbkvH6G15vSRSRbGSq037Ax5eUQugJ5ONLpq9vYCjedfEqhS0P2dbQm4jX33T9ly2JIpL6zFW9y37Ax5cgn0LIx5dg3/fufU5hy0ohHO6LXOkbLYsikvpMNf+n/YCPTyE0ED6+o8njO1sUtowUwrEefy4qItnIeOej9gM+PoXQQPj4jiY9fYNxxgp/NpqFQjjZeoVFUUTSn9LXxchQp/2Aj08hNBA+vqPNBXftUNoyUAhnaz9uURSR1Gem9hP2Az4+hdBA+PiOJQ9vb1baUl4IR4Z7IkpPsSyKSOpzeO/N9gM+PoXQQPj4jiUH+ofi3ZesVtxSXAjHejZaFEUkExntr7Mf8PEphAbCx3esWfFQqeKW4kI4se9Oi6KIpD6z1R+wH/DxKYQGwsd3PNlRv19xS3EhnGz+kWVRRFKfydYr7Qd8fAqhgfDxHW/OvWGT8pbSQjhTd55lUURSn0O9z9kP+PgUQgPh4zve3LWhXnlLaSGcqzzdsigiqc5c5Rn2Az4+hdBA+PhOxNLVO+jHZdJYCIcH5pel11oYRSTlfy56hf2Aj08hNBA+vhP1XPVYpQKXskI4MrjPsigi6f910b5K+wEfn0JoIHx8J+pp2d8bpy8vUeJSVAhHBxosiyKS8l8X/aD9gI9PITQQPr6l8v3g/l1KXIoK4aG+cgujiKT7ZvTtN9oP+PgUQgPh41sqX0VzV5y6TIlLTSHs2WphFJEU57UxOtBsP+DjUwgNhI9vKX3fv/c5RS4lhXCse42FUURSm5naf7Yf8PEphAbCx7fUvrr2Ht8lTEsh7Hra0igiqc3EvrvsB3x8CqGB8PGdDN9lj5QrcwqhiEhyU/r6GBnabz/g41MIDYSP72T42rv64j2XrFHoFEIRkURmuu4L9gM+vmIohJ5APr7i9d2yqlahW4KsLmsr3HwPbrY4ikg6M/i0/YCPrwh8CiEfXxH7+geH4tzrNyl1CqGISLJS/uaIuUn7AR+fQmggfHwn27d9d4fbUCiEIiLJyr4V9gM+PoXQQPj48uW75OEyxU4hFBFJTg7vsR/w8SmEBsLHly9fV+9gnLVynXKnEIqIFD6Nn7Yf8PEphAbCx5dv39bafXGaexMqhCIihc7QavsBH59CaCB8fIXw3VxSo+AphCIihUvV6RG5WfsBH59CaCB8fIXwDQ0Px9fv2K7kKYQiIoVJ1032Az4+hdBA+PgK6Wvv7vd9QoVQRCT/KX19xPSA/YCPTyE0ED6+Qvt2NXbGuy9erewphCIi+UvrhfYDPj6F0ED4+JLi21DZHm+/yI/MKIQiInnKoTLvv3x8CqGB8PElyfe7Z5vdtF4hFBE5+dl9tvdfPj6F0ED4+JLo++WGOqVPIRQRObkZfML7Lx+fQmggfHxJ9d23ucEnhQqhiMhJyVzVe+YPsznvv3x8CqGB8PEl2ffojpY43Y3rFUIRkSXOeMf93n/5+BRCA+HjKwbfQvE5Y8UqJVAhFBFZok8H3x0Hhwe9//LxKYQGwsdXLL6ypq746NUbFEGFUERkCT4d/LX3Xz4+hdBA+PiKzdfZOxAX3LVDGVQIRUSOO7PVH5o/+4a8//LxKYQGwsdXjL7h4YPx8zW74zTfK1QIRUSOI2M9m7z/8vEphAbCx1fsvvLmrvjczVsVQoVQROSoM13/Ze+/fHxpKYSeQD4+vrlcLh55bm+899LVmSyE2xp6Czbfsa6nLZciUlwpfUPE5H7vv3x8KfEphHx8fH98tHb2xbIHSzN3ewqFUETkGNL1M++/fHwKoYHw8aXZ19TRG5c9Up6ZW1QohCIiR5ndZ0fkZrz/8vEphAbCx5cF38Inhlc/URkfvHytQqgQikjm/1T0lIjx3d5/+fgUQgPh48uab3BoONaWt8V//fr5VH5qqBCKiBxFOq/z/svHpxAaCB9f1n09fYPx2M6WWPHbsvjkdRsVQoVQRLKQuo9H5Ka9//LxKYQGwsfH9+I/K318viCufLQivvHLZ+Pj12wounsbKoQiIq+QirdFTHV7/+XjUwgNhI+P7+gyMDgcu9t64tmmvlhT3RWP79oXv3m2LX65qSVuWdsQ1z9dF9cdR66YL51LmT/8c9t6DymEIiIv+b3B10WMPOv9jY9PITQQPj4+PoVQRDKX7tu8f/DxKYQGwsfHx6cQikjmsne59w8+PoXQQPj4+PgUQhHJXNq+M3+q5bx/8PEphAbCx8fHpxCKSKbS8vX5Ljjr/YOPTyE0ED4+Pj6FUEQylT0XvOLtJbx/8PEphAbCx8fHpxCKSCpvPH/NMf2ZqPcPPj6F0ED4+Pj4FEIRKfpbS5wS0feg85mPTyE0ED4+Pj6FUEQylep3Rxwqcz7z8SmEBsLHx8enEIpIdvKaI7eVmJtwPvPxKYQGwsfHx6cQikhWMlf17oiRbc5nPj4+hZCPj49PIRSRzBTBilNjYt/dcXB40PnMx8enEPLx8fEphCKSjSJ4Whzee8t8EexzPvPx8b24EHoC+fj4+AroO7jZwioiJ+GXQ98Qseeb//2noXPOZz4+vpeNQsjHx8enEIpIGlL59xGtFx65hcTMQeczHx+fQsjHx8enEIpIOsvfP0Q0/EtE+39F9N4bcXiP85mPj08h5OPj41MIZamTK//rmGz9SUTnNUuahX/mUoYvbb4r4nDbDTGx97aY6JgvfEMl8+fFpojxuoi5ceczHx+fQsjHx8enEEpefpCj8gzXBx8fHx+fQmggfHx8fAqhQuj64OPj4+NTCA2Ej4+PTyFUCF0ffHx8fHwKoYHw8fHxKYQKoeuDj4+Pj08hNBA+Pj4+hVAhdH3w8fHx8SmEBsLHx8enECqErg8+Pj4+PoXQQPj4+PgUQoXQ9cHHx8fHpxAaCB8fH59CqBC6Pvj4+Pj4FEID4ePj41MIFULXBx8fHx+fQmggfHx8CqHSpRC6Pvj4+Pj4FEID4ePjUwhFIXR98PHx8fEphF4wfHx8CqEohK5fPj4+Pj6FkI+Pj08hFIXQ9cvHx8fHpxDy8fHxKYSiELp++fj4+PgUQj4+Pj6FUBRC1y8fHx8fn0LIx8fHpxCKQsjHx8fHx3dchdATyMfHx1c431jX00pX0lP9LtcHHx8fH19qfQohHx8fn0IoCiEfHx8fn0JoIHx8fHwKoSiEfHx8fHwKoYHw8fHxKYSiEPLx8fHxKYQGwsfHx6cQKoSuDz4+Pj4+hdBA+Pj4+BRChdD1wcfHx8enEBoIHx8fn0KoELo++Pj4+PgUQgPh4+PjUwgVQtcHHx8fH59CaCB8fHx8CqFC6Prg4+Pj41MIDYSPj49PIVQIXR98fHx8fAqhgfDx8fEphAqh64OPj4+PTyE0ED4+Pj6FUCF0ffDx8fHxKYQGwsfHx6cQKoSuDz4+Pj4+hdBA+Pj4FEJRCF0ffHx8fHwKoYHw8fEphKIQuj74+Pj4+BRCLxg+Pj6FUBJRCM+ImBmMkcH2Jc3CP3Mpk2nf7IjzhY+Pj08h5OPj41MIRTKZ2g84X/j4+PgUQj4+Pj6FUEQhdL7w8fHxKYR8fHx8CqGIQuj84+Pj41MI+fj4+BRCEYXQ+cfHx8f3MoXQE8jHx8dXQN/BzZZ5kRPMbNWZzhc+Pj6+44xCyMfHx6cQiiiEzj8+Pj6F0ED4+Pj4FEIRhdD5x8fHpxAaCB8fH59CKKIQOv/4+PgUQgPh4+PjUwhFFELnHx8fn0JoIHx8fHwKoYhC6Pzj4+NTCA2Ej4+PTyEUUQidf3x8fAqhgfDx8fEphCIKofOPj49PITQQPj4+PoVQRCF0/vHx8SmEBsLHx8enEIoohM4/Pj4+hdBA+Pj4+BRCEYWQj4+PTyE0ED4+Pj6FUEQh5OPj41MIDYSPj49PIRRRCPn4+PgUQgPh4+NTCEVEIeTj4+NTCA2Ej49PIRQRhZCPj49PIfSC4ePjUwhFTiylr4uo/IeIunMimr8c0fSFiN1nRVS8df7//xqF0PnHx8fHpxDy8fHxFbYQblFaZGlT896I/SsjDpVF5GZf/rU3NxkxvDGi/T/nC+LbirwQvs/5wsfHx6cQ8vHx8RWhb3SHAiNLk6bPRozXHufVMBcxtGa+TJ5ZnIWw5mznCx8fH59CyMfHx1eEvrEaRUZOLLX/eOST5qV4LHyi2HtfRGVxfWI4s/tc5wsfHx+fQsjHx8dXhL7DbQqNHH/avjdf4maW/NqI6f6I+k8WzfMwXfcF5wsfHx/f8RZCTyAfHx9f4XwjA61KjRzfj8V03xYn9ZGbimj9VnE8H63fdr7w8fHxHedDIeTj4+MrZCEc7lVu5BjzmoiBRyNvj30XJ/852bvc+cLHx8enEPLx8fEVpy9X9mYlR44+C78gmtfHXETT55L9nHRe53zh4+PjUwj5+Pj4itM3W/sxJUeO8pdEvzj/SstF3h+zIxE170nu8zL4hPOFj4+PTyHk4+PjK07fVNN3FB159ZS/JWJmKAr2GKued7w2mc/NeL3zhY+Pj08h5OPj4ytO3+G9tyg78urpuikK/tjzjQT+wM4pR34Ax/nCx8fHpxDy8fHxFaNvrHu1siOvnMq/j5ibKHwhnGw/UsCS9NzUnOl84ePj41MI+fj4+IrXNzK0/8htBBQfebn03BGJeSzc+zBJz82ef3e+8PHx8SmEfHx8fMXtm6n9hNIjL3+bianO5BTC4Y3Jen76HnC+8PHx8SmEfHx8fMXtO9x2veIjL53dZ0eiHgvf1ytP0K1SpnqcL3x8fHwKIR8fH19x+w71lSo+8jL32LshEvdo+beElOUPOV/4+Pj4FEI+Pj6+dPjmKk5TfuTFObgpeYVw4TuNSXhu9l/lfOHj4+NTCPn4+PjS4ZtsXan8yEm5x96SPwYeT8ZzM1bhfOHj4+NTCPn4+PjS4RsdaE7eT/pL4TMzmLxCOLojAX8u+mHnCx8fH59CyMfHx5cu33T9lxUgecFN198QiXwcbi38c9P/kPOFj4+PTyHk4+PjS5dvrHudEiQvKISnzL+ycskrhBNNBX1ecuV/EzE36Xzh4+PjUwj5+Pj40uebrfmwIiT/k+mB5BXCkW0FfU4mW1Y4X/j4+PgUQj4+Pr50+sZ6NipB8oIflalLXiHsf6Rwnw6W/mWMDLQ6X/j4+PgUQj4+Pr70+qbrPq8ISXJvO9F9S8Gej8Ot1zhf+Pj4+BRCPj4+vnT7Rvsq/eKo/Pe99lYmrxA2fbYgz8XCvToPDvU6X/j4+PiWshB6Avn4+PiS6ZtsWaYMSUTNmckqg7OHIkpfX5jnYuAx5wsfHx/fEvsUQj4+Pr6k+oZ6Y7bqTIVIjtzmISmPwd8X5jlo/L/xwl9cdb7w8fHxKYR8fHx8qfcd6n2ucJ/GSHLSeX1yCmHz+fn/76/424ipHucLHx8fn0LIx8fHlz3f4bbrFKKsp/zNETODhS+Dh8rnPa/J/3//UInzhY+Pj08h5OPj48uqbyhm6j6tFGU9+y4ufCFs+FT+/7vbvu984ePj41MI+fj4+LLtGxnq8n3CrKf0DRGH2wpXBofX5v+/ue4jEXPjzhc+Pj4+hZCPj4+Pb7S/PnLlb1WMspzaD8wXpLH8l8HJvUe+x5fP/9bqd0RM9ztf+Pj4+BRCPj4+Pr4/5FDPloiyNypGWU7zl+OFv7Z50h8Lt5mofX+ef0TmbyImWpwvfHx8fAqhFwwfHx/fn2esa1XkSpXCbH+fcEV+SuHcRETT5/L737bwP3iM7nS+8PHx8SmEXjB8fHx8L1sKu9fNl8I3KUaZ/qTwKy/7/boleUx1Rew+O89l8C8jRp51vvDx8fEphF4wfHx8fK/27xvr2TBfCv9CMcpydp8VMdmx9GXwUGlE5d/l+dYab5n/95Y5X/j4+PgUQi8YPj4+vqP1HerZGrkKPzST6Sz8iWXHFRGzo0vwqWBnROuF8//c1+b5O4P/J2K81vnCx8fHpxAaCB8fH9+x+kYHGmK26n2KUdazUKq6bz1S6o71MV4Xse/SwvxgUc2ZEYf3OF/4+Pj4FEID4ePj4zte38J9CmfqP6sUyXxec+S7f10/jRh5JmKiOWJ25H9eWDMDRwrgwY0RHZdFVL+zcNamLx73J5vOFz4+Pj6FkI+Pj4/vTzIUk3suOVIIFCN50Z+W/kVE6euT49l/5fyrfM71y8fHx6cQGggfHx/fUvrGutdEruLvFCBJ6J+2vjViaLXrl4+Pj08hNBA+Pj6+k+UbGWzzJ6SSwFtlnB8x3e/65ePj41MIDYSPj48vH76JvbdHruyvFBEpaBZfg30Pun75+Pj4FEID4ePj48u3b3SwJabrv6yYSEGy8NobHWh0/fLx8fEphAbCx8fHV1Dfwq9KVr9DSZG8ZK7q3THWtcr1y8fHx5f0QugJ5OPj48uOb2S4Nw63XevPSOXkpfzNEd23ROSmXb98fHx8ReBTCPn4+Pgy6BsZbI+plh8m6zYEUuS3tXhTRMcVETNDrl8+Pj4+hdBA+Pj4+IrBN9q/O6Yb/2O+GL5OoZHjy8L/qLB3ecR0r+uXj4+PTyE0ED4+Pr5i9C0Uw6mm780v929QcOToUvm2iM5rI6Z6XL98fHx8CqGB8PHx8aXBNzLQEpMtF/mOobx86s6J6P9dRG7K9cvHx8enEBoIHx8fXxp9I8PdMbH3jpitep8CJBGlp0TsuSDiULnrg4+Pj08hNBA+Pj6+LPnGejbGdMPX/ABNJv8s9O8iOm941e8Hun75+Pj4FEID4ePj40u5b2Rof0x03Bszdecd+cRIYUplcmVvianGCyKGN0bkZlwffHx8fAqhgfDx8fHx/Vk5HNwb0fdAROOn/UJpGkpg+V/Pl8ALY6zrqTg4POD64OPj41MIDYSPj4+P7yh90wMRvfdGNHxqvly8VsEqmhL4tzHV9O35EljyxxLo+uDj4+NTCA2Ej4+Pj+/4fdMH5svhfREt/xZR8beKV8IyW3VmTDb/OMa6V79kCXR98PHx8SmEBsLHx8fHt0S+uYixmoju2yKaPhtR9ialLN+fAla8LaYbvxETHffF6GCL64OPj4+PTyHk4+Pj4yuQLzcdMbrjyM3M6z/ph2lOSgF8a0zXnx+H994ch3qfn5/TsNcfHx8fH59CyMfHx8eXQN/soYjhDRH7LlksiLlSnyAec6rfHdH2vYj+h2K0r8rrj4+Pj49PIeTj4+PjK1Lf8GCM9pbHeMevY7L5hzFT+4n5kviXSt8fUnV6RMtXI7punH+yNkfMDHj98fHx8fEphHx8fHx8afYNxWhf5XxJfCAmW5bNl8R/jlzZX6W7+JXNl+C6j0S0fjui+5aXLH9ef3x8fHx8CiEfHx8fX0Z9wzE60BBj3WtiYu8di7+aOVP/2ZirenfRfC8xV/rGiJozI5o+H7H3RxEHfjn/BGyJmOqcfyZyXn98fHx8fAqhFwwfHx8f37FnKEYGWuLQge0RQ6vni9bdEftXRrR+a758fS6i7mNHvne3eEuM156EoveXMVf59pitOSem6z4XU43fisk9lyz+yMv4/ofmXdvmfa3my8fHx8enEBoIHx8fH19hfbmI2ZGIqe6Iw20R4/URYxURozuP/Jnm8Lr5rJ/Pxvn/e1OMdT09n1WLn0we6tm8+Cueo/018wVvT4wMdy+WUfPl4+Pj41MIDYSPj4+Pj4+Pj4+Pj684CqEnkI+Pj4+Pj4+Pj4+PL5s+hZCPj4+Pj4+Pj4+Pj08hNBA+Pj4+Pj4+Pj4+Pj6F0ED4+Pj4+Pj4+Pj4+PgUQgPh4+Pj4+Pj4+Pj4+NTCA2Ej4+Pj4+Pj4+Pj49PITQQPj4+Pj4+Pj4+Pj4+hdBA+Pj4+Pj4+Pj4+Pj4FEID4ePj4+Pj4+Pj4+PjUwgNhI+Pj4+Pj4+Pj4+PTyE0ED4+Pj4+Pj4+Pj4+PoXQQPj4+Pj4+Pj4+Pj4+BRCA+Hj4+Pj4+Pj4+Pj41MIDYSPj4+Pj4+Pj4+Pj08hNBA+Pj4+Pj4+Pj4+Pj6F0AuGj4+Pj4+Pj4+Pj49PIeTj4+Pj4+Pj4+Pj4+NTCPn4+Pj4+Pj4+Pj4+PgUQj4+Pj4+Pj4+Pj4+Pj6FkI+Pj4+Pj4+Pj4+Pj+/YC6EnkI+Pj4+Pj4+Pj4+PL5s+hZCPj4+Pj4+Pj4+Pj08hNBA+Pj4+Pj4+Pj4+Pj6F0ED4+Pj4+Pj4+Pj4+PgUQgPh4+Pj4+Pj4+Pj4+NTCA2Ej4+Pj4+Pj4+Pj49PITQQPj4+Pj4+Pj4+Pj4+hdBA+Pj4+Pj4+Pj4+Pj4FEID4ePj4+Pj4+Pj4+PjUwgNhI+Pj4+Pj4+Pj4+PTyE0ED4+Pj4+Pj4+Pj4+PoXQQPj4+Pj4+Pj4+Pj4+BRCA+Hj4+Pj4+Pj4+Pj41MIDYSPj4+Pj4+Pj4+Pj08hNBA+Pj4+Pj4+Pj4+Pj6F0AuGj4+Pj4+Pj4+Pj49PIeTj4+Pj4+Pj4+Pj4+NTCPn4+Pj4+Pj4+Pj4+PgUQj4+Pj4+Pj4+Pj4+Pr4Tefx/ZoyzP9fFj10AAAAASUVORK5CYII=;fontStyle=1" parent="EeGv5rOPFj5XWAcBbfgR-6" vertex="1">
          <mxGeometry width="100.19" height="60" as="geometry" />
        </mxCell>
        <mxCell id="EeGv5rOPFj5XWAcBbfgR-9" style="edgeStyle=orthogonalEdgeStyle;rounded=0;orthogonalLoop=1;jettySize=auto;html=1;entryX=0;entryY=0.5;entryDx=0;entryDy=0;" parent="1" target="EeGv5rOPFj5XWAcBbfgR-12" edge="1">
          <mxGeometry relative="1" as="geometry">
            <mxPoint x="200" y="350" as="sourcePoint" />
            <Array as="points">
              <mxPoint x="200" y="350" />
              <mxPoint x="200" y="445" />
            </Array>
          </mxGeometry>
        </mxCell>
        <mxCell id="EeGv5rOPFj5XWAcBbfgR-10" value="Generative-auto suggest&#xa;additional prompt" style="shape=image;verticalLabelPosition=bottom;labelBackgroundColor=default;verticalAlign=top;aspect=fixed;imageAspect=0;image=data:image/png,iVBORw0KGgoAAAANSUhEUgAAAIEAAACBCAMAAADQfiliAAAA5FBMVEUAAAAgLT0gMDggMEAiLj0iLj4jLT0jLj4jMD0kMDwkMEAlMDohLj4iLj4iLz4jLz0jLz4gMEAgMEAgMDggMEAgMDggMEAlMDolMDokMDwkMEAkMDwkMEAgMD0gLT0jMD0jMEAjLT0jLj4jMD4jLT0jLj4jMD0jLT0jMD0iLj4iMD4iLj0iLj4kMD0iLj0iLj4iLj4kMD4iLj4iLj4jLj4jMD4iLj4jLj4jMD4jLz0jLj4jLz0hLj4jLj4jLz0jLz0jLz0jLz0iLz4iLz4iLz4jLz4iLz4jLz4jLz4jLz4jLz4jLz4hOhgJAAAAS3RSTlMAAAAAAAAAAAAAAAABAQEBARARICAhITAxQEBBQU9QUFBRX19gYGBhYW9vcHBwcX+AgI6Pj4+QkJCen5+goK6vvr/Oz97e39/u7/7H1a08AAAG0klEQVR42u1b+VvbNhjWMKEQSlMn5jBLRwtuNralccY1lgsTkvj4//+fxdZh2Tos2U7Ynif6pQW51qtX3/d+h1wAdmM3dmM3duN/PZzHjmjqwHE7G1//0ouiaMRdpxnPhYPNrm9OomQE7DrG2QzOLTZIgzkIIjxW19n1qbnN0XC5RATAP2Yd2gAyc5uhwfLgGp4Nemg5bA6JAcA5a7IpGswB2mM/QTOhj6KNfvJv1j8cInh103CLmP/bxIzMMAZsAMEQzhmboIGQfE79spe1ipd0z7XTgD0wcnMTwyXxjFc74xi10kB5mcMYJzaAfn6mRhpoD3Q4DhJPP5vsRF00pB445iMAot/XQ4N5l3qgPoIaaMh4YAkElWlwMh5YCkFFGsaJ4NgFK8kRVKMhfvfIBBUREBp8sxQCB1RGgGkInfdDsM5d5u+BoHl5696iw/843j4C4wxqGZTLmhFcua57XoDAOMPBZGHWj0CFm09p1PzrXRAcfEu0zI1xBGvK3Pm2EZw8xiYAjHZKxZYRYNY/jt8LwUY4SD1AAcHRz0kuHx//OreryQ70dILyhee6fEEPwfFF/XqgqZXGGWRhWp8m6qo1OLJd9/dKcSFJku8E2bECgrx3RlO9HAUnyasON3n8UgJB5GukanSfYMABRuFS2t3hb8gsrzWT5CC/HJrwOrlssnB3h1fIPV9VjoLpBWAaEAFBpkTrKe7uMN9zKDaAG6o+TmjgEJCIpeLuDOsJFZkDFQPAvQBgon824BKQLeNHhRgmhYRhA6DfZVPRhSEA8UbvrnnpkvxQ2xwc0ijK8PKE1+cRkN/dBZ0fis1BUD2MUwPIDESD11EwdtLSMKXmIFDIbJVE0+Dx9ZFr7IKGi1L1INY3pboEm8MoyQ/FVZokSlRDgHaX5EZriw7tqgisAgSm5N2tmSwWqiFwlis5Aovn/jg/jJODahwkTeJrKYIJ09sm+aE3imVlAcojQE3qlQyBw4/dLY/4wrA0AtIkH8oQ2HwlxsnZOmKDsgiw/A3NAkscBtxrBnjNEQxBNQS59fneSPrrORqsq96VSfcR8nGiGAGzPswNWU1EShxIOkTHF0smThQhYNfHIZMjy/AoHAmAgI0TBQiYuNA4I/Y9Pz1mAvNcioCqndySqmy0/kx2EYbJkV/sa+n1wa+8OKGFABPg96235C8/TnQQkBo6Eyc0EBAC4vsTawqN4dOeOoJMnPiij+CAEIDMLuQYgxIHiU6RqkIdgZMSgFJSHxqDQdEkRUDHibi9bWoisJkLHGgMlP8bbU/qC1ScSJNkDTu4pwmAEKYZ/2/AMCDp7pM4EaR30hoIzFc2OZ6lzxgn0FBl2ROJE1TNVCpL4z1jtO9Ed3C8OGGYQ3wvro3A4D7TTJLCYgScqkKerTt7+R55q81D0OgmJ+Av1RHEvrEsRjA7bdEYjJOu531gEBgtFxrW+VgHQVpVSKPziMLQSM76u5FD0IRaFa77VJoIQMOFKvOFO9sLowyGJlJlOgFIVuwmGwn7ypUEkVmcA4ouvuwXCkN8AJCxaa5nAn+9sIEmgvRDjaE4qaEwYGdb2NxMDmmVOgKl9TMYoNr4Q24mFz5o1XMa62cw5A4gcQ346YX/Va+iRLmK2vo0hkWu8sIy+NrRrGlRR1F1fVKRjPLiBGUwfDBBKQTPWteunDdjGezr1/VlOsvMm1MZBO+DgJJBOQJ+L606ggYlg7Lnji/m3F5adQS3XN9gnkvvWnO9tOoI+rmPnujnqDdza6Sa7OA+lUE2ort4TES9tBoQmC9fi3oO5HKN00urwxslz2UGv5e2TQT8XtqGEaR28CjqpW0WAfVmYS9tawiEvbStIcA1AdNLK4tgT1R7tFoCBGwvrRKC0ekH7lyz7c32RQjELbUSCKLV9xZLwzqHXr/ujz11BAb8zFBQI4gGqh1mpw3AzdSCjjKCZrfcx3FXbyjCfP4p29uaZzorhQjwt1HcuFYwYN8oWv2SHgXpbfWBoh000A3mwgYlhjUNUfWyT0ww/zo5AnwA0dAE5UYPHsXqx+c9bIJsrixEYOAPXV8qfCxr3aOjOD1pomLB79GblCBooH603weVhvUGMdx157nmXmwW3aXo+4NjdPsaPZig6ui/UdGf2o9Bmt7sdTo5gFcb1DCsf3AhuaLe12i7Qa5TyFhg1QNgxeGOiAPubpBOIVVLVpEAVXFYGwDqbnD+R0c1CVASh9QAFjcg/3VFdQlQEAdsAD5ehPr+oA4JKBYH5BbP1CK57w/qs0CROMS6YPM7hTVJQKE4LG44TdunOiVAKg6hz7eyxBw2dwBUh6cnJPlIMrcbu7Eb//XxL10SrsHy+KvYAAAAAElFTkSuQmCC;fontStyle=1" parent="1" vertex="1">
          <mxGeometry x="600" y="400" width="80" height="80" as="geometry" />
        </mxCell>
        <mxCell id="EeGv5rOPFj5XWAcBbfgR-15" style="edgeStyle=orthogonalEdgeStyle;rounded=0;orthogonalLoop=1;jettySize=auto;html=1;exitX=0;exitY=0.25;exitDx=0;exitDy=0;entryX=0.5;entryY=1;entryDx=0;entryDy=0;" parent="1" source="EeGv5rOPFj5XWAcBbfgR-12" target="EeGv5rOPFj5XWAcBbfgR-4" edge="1">
          <mxGeometry relative="1" as="geometry">
            <mxPoint x="230" y="410" as="sourcePoint" />
            <mxPoint x="230" y="410" as="targetPoint" />
            <Array as="points">
              <mxPoint x="420" y="420" />
              <mxPoint x="220" y="420" />
            </Array>
          </mxGeometry>
        </mxCell>
        <mxCell id="EeGv5rOPFj5XWAcBbfgR-17" style="edgeStyle=orthogonalEdgeStyle;rounded=0;orthogonalLoop=1;jettySize=auto;html=1;entryX=0;entryY=0.25;entryDx=0;entryDy=0;exitX=0.25;exitY=0;exitDx=0;exitDy=0;" parent="1" source="EeGv5rOPFj5XWAcBbfgR-4" target="EeGv5rOPFj5XWAcBbfgR-16" edge="1">
          <mxGeometry relative="1" as="geometry">
            <mxPoint x="210" y="290" as="sourcePoint" />
            <mxPoint x="430" y="455" as="targetPoint" />
            <Array as="points">
              <mxPoint x="190" y="290" />
              <mxPoint x="190" y="174" />
            </Array>
          </mxGeometry>
        </mxCell>
      </root>
    </mxGraphModel>
  </diagram>
  <diagram id="ge5Dn6pG_7bA6CZXBqaw" name="Page-2">
    <mxGraphModel dx="1089" dy="686" grid="1" gridSize="10" guides="1" tooltips="1" connect="1" arrows="1" fold="1" page="1" pageScale="1" pageWidth="850" pageHeight="1100" math="0" shadow="0">
      <root>
        <mxCell id="0" />
        <mxCell id="1" parent="0" />
        <mxCell id="2I05ab8oT2TBy5zT0fwJ-3" value="" style="edgeStyle=orthogonalEdgeStyle;rounded=0;orthogonalLoop=1;jettySize=auto;html=1;" parent="1" source="2I05ab8oT2TBy5zT0fwJ-1" target="2I05ab8oT2TBy5zT0fwJ-2" edge="1">
          <mxGeometry relative="1" as="geometry" />
        </mxCell>
        <mxCell id="2I05ab8oT2TBy5zT0fwJ-1" value="Solution Approved&amp;nbsp;&lt;br&gt;to Build" style="rounded=0;whiteSpace=wrap;html=1;" parent="1" vertex="1">
          <mxGeometry x="79" y="40" width="120" height="60" as="geometry" />
        </mxCell>
        <mxCell id="2I05ab8oT2TBy5zT0fwJ-5" value="" style="edgeStyle=orthogonalEdgeStyle;rounded=0;orthogonalLoop=1;jettySize=auto;html=1;" parent="1" source="2I05ab8oT2TBy5zT0fwJ-2" target="2I05ab8oT2TBy5zT0fwJ-4" edge="1">
          <mxGeometry relative="1" as="geometry" />
        </mxCell>
        <mxCell id="2I05ab8oT2TBy5zT0fwJ-6" value="No" style="edgeLabel;html=1;align=center;verticalAlign=middle;resizable=0;points=[];" parent="2I05ab8oT2TBy5zT0fwJ-5" vertex="1" connectable="0">
          <mxGeometry x="0.025" y="1" relative="1" as="geometry">
            <mxPoint as="offset" />
          </mxGeometry>
        </mxCell>
        <mxCell id="2I05ab8oT2TBy5zT0fwJ-8" value="" style="edgeStyle=orthogonalEdgeStyle;rounded=0;orthogonalLoop=1;jettySize=auto;html=1;" parent="1" source="2I05ab8oT2TBy5zT0fwJ-2" target="2I05ab8oT2TBy5zT0fwJ-7" edge="1">
          <mxGeometry relative="1" as="geometry" />
        </mxCell>
        <mxCell id="2I05ab8oT2TBy5zT0fwJ-9" value="Yes" style="edgeLabel;html=1;align=center;verticalAlign=middle;resizable=0;points=[];" parent="2I05ab8oT2TBy5zT0fwJ-8" vertex="1" connectable="0">
          <mxGeometry x="-0.4" relative="1" as="geometry">
            <mxPoint as="offset" />
          </mxGeometry>
        </mxCell>
        <mxCell id="2I05ab8oT2TBy5zT0fwJ-2" value="Leverage ABP?" style="rhombus;whiteSpace=wrap;html=1;rounded=0;" parent="1" vertex="1">
          <mxGeometry x="99" y="150" width="80" height="80" as="geometry" />
        </mxCell>
        <mxCell id="2I05ab8oT2TBy5zT0fwJ-4" value="Partner&#39;s&lt;br&gt;Repo&lt;br&gt;Process" style="ellipse;whiteSpace=wrap;html=1;rounded=0;fillColor=#f8cecc;strokeColor=#b85450;" parent="1" vertex="1">
          <mxGeometry x="280" y="150" width="80" height="80" as="geometry" />
        </mxCell>
        <mxCell id="2I05ab8oT2TBy5zT0fwJ-11" value="" style="edgeStyle=orthogonalEdgeStyle;rounded=0;orthogonalLoop=1;jettySize=auto;html=1;" parent="1" source="2I05ab8oT2TBy5zT0fwJ-7" target="2I05ab8oT2TBy5zT0fwJ-12" edge="1">
          <mxGeometry relative="1" as="geometry">
            <mxPoint x="240" y="310" as="targetPoint" />
          </mxGeometry>
        </mxCell>
        <mxCell id="2I05ab8oT2TBy5zT0fwJ-7" value="Identify the&lt;br&gt;deployment type&lt;br&gt;(cfn, terraform, cdk)" style="shape=process;whiteSpace=wrap;html=1;backgroundOutline=1;rounded=0;" parent="1" vertex="1">
          <mxGeometry x="79" y="280" width="120" height="60" as="geometry" />
        </mxCell>
        <mxCell id="2I05ab8oT2TBy5zT0fwJ-15" value="" style="edgeStyle=orthogonalEdgeStyle;rounded=0;orthogonalLoop=1;jettySize=auto;html=1;" parent="1" source="2I05ab8oT2TBy5zT0fwJ-12" target="2I05ab8oT2TBy5zT0fwJ-14" edge="1">
          <mxGeometry relative="1" as="geometry" />
        </mxCell>
        <mxCell id="2I05ab8oT2TBy5zT0fwJ-12" value="Select the&amp;nbsp;&lt;br style=&quot;border-color: var(--border-color);&quot;&gt;PSF Project type in ABP" style="shape=process;whiteSpace=wrap;html=1;backgroundOutline=1;rounded=0;" parent="1" vertex="1">
          <mxGeometry x="270" y="280" width="120" height="60" as="geometry" />
        </mxCell>
        <mxCell id="2I05ab8oT2TBy5zT0fwJ-17" value="" style="edgeStyle=orthogonalEdgeStyle;rounded=0;orthogonalLoop=1;jettySize=auto;html=1;" parent="1" source="2I05ab8oT2TBy5zT0fwJ-14" target="2I05ab8oT2TBy5zT0fwJ-16" edge="1">
          <mxGeometry relative="1" as="geometry" />
        </mxCell>
        <mxCell id="2I05ab8oT2TBy5zT0fwJ-14" value="Submit new&lt;br&gt;project&lt;br&gt;(ABP)" style="whiteSpace=wrap;html=1;rounded=0;" parent="1" vertex="1">
          <mxGeometry x="440" y="280" width="120" height="60" as="geometry" />
        </mxCell>
        <mxCell id="2I05ab8oT2TBy5zT0fwJ-19" value="" style="edgeStyle=orthogonalEdgeStyle;rounded=0;orthogonalLoop=1;jettySize=auto;html=1;" parent="1" source="2I05ab8oT2TBy5zT0fwJ-16" target="2I05ab8oT2TBy5zT0fwJ-18" edge="1">
          <mxGeometry relative="1" as="geometry" />
        </mxCell>
        <mxCell id="2I05ab8oT2TBy5zT0fwJ-39" value="Yes" style="edgeLabel;html=1;align=center;verticalAlign=middle;resizable=0;points=[];" parent="2I05ab8oT2TBy5zT0fwJ-19" vertex="1" connectable="0">
          <mxGeometry x="-0.0333" y="-3" relative="1" as="geometry">
            <mxPoint as="offset" />
          </mxGeometry>
        </mxCell>
        <mxCell id="2I05ab8oT2TBy5zT0fwJ-40" style="edgeStyle=orthogonalEdgeStyle;rounded=0;orthogonalLoop=1;jettySize=auto;html=1;entryX=1;entryY=0.5;entryDx=0;entryDy=0;dashed=1;" parent="1" source="2I05ab8oT2TBy5zT0fwJ-16" target="2I05ab8oT2TBy5zT0fwJ-14" edge="1">
          <mxGeometry relative="1" as="geometry">
            <Array as="points">
              <mxPoint x="620" y="450" />
              <mxPoint x="620" y="310" />
            </Array>
          </mxGeometry>
        </mxCell>
        <mxCell id="2I05ab8oT2TBy5zT0fwJ-41" value="Fix &amp;amp; &lt;br&gt;Resubmit" style="edgeLabel;html=1;align=center;verticalAlign=middle;resizable=0;points=[];" parent="2I05ab8oT2TBy5zT0fwJ-40" vertex="1" connectable="0">
          <mxGeometry x="-0.19" y="1" relative="1" as="geometry">
            <mxPoint y="-37" as="offset" />
          </mxGeometry>
        </mxCell>
        <mxCell id="2I05ab8oT2TBy5zT0fwJ-16" value="Solution&amp;nbsp;&lt;br&gt;approved in&amp;nbsp;&lt;br&gt;ABP" style="rhombus;whiteSpace=wrap;html=1;rounded=0;" parent="1" vertex="1">
          <mxGeometry x="460" y="410" width="80" height="80" as="geometry" />
        </mxCell>
        <mxCell id="2I05ab8oT2TBy5zT0fwJ-21" value="" style="edgeStyle=orthogonalEdgeStyle;rounded=0;orthogonalLoop=1;jettySize=auto;html=1;" parent="1" source="2I05ab8oT2TBy5zT0fwJ-18" target="2I05ab8oT2TBy5zT0fwJ-20" edge="1">
          <mxGeometry relative="1" as="geometry" />
        </mxCell>
        <mxCell id="2I05ab8oT2TBy5zT0fwJ-18" value="GitHub Repo&lt;br&gt;provisioned" style="shape=process;whiteSpace=wrap;html=1;backgroundOutline=1;" parent="1" vertex="1">
          <mxGeometry x="270" y="420" width="120" height="60" as="geometry" />
        </mxCell>
        <mxCell id="2I05ab8oT2TBy5zT0fwJ-23" value="" style="edgeStyle=orthogonalEdgeStyle;rounded=0;orthogonalLoop=1;jettySize=auto;html=1;entryX=0.5;entryY=0;entryDx=0;entryDy=0;" parent="1" source="2I05ab8oT2TBy5zT0fwJ-20" target="2I05ab8oT2TBy5zT0fwJ-42" edge="1">
          <mxGeometry relative="1" as="geometry">
            <mxPoint x="140" y="550" as="targetPoint" />
          </mxGeometry>
        </mxCell>
        <mxCell id="2I05ab8oT2TBy5zT0fwJ-20" value="Fork repo&lt;br&gt;(Partners)" style="shape=process;whiteSpace=wrap;html=1;backgroundOutline=1;" parent="1" vertex="1">
          <mxGeometry x="80" y="420" width="120" height="60" as="geometry" />
        </mxCell>
        <mxCell id="2I05ab8oT2TBy5zT0fwJ-25" value="" style="edgeStyle=orthogonalEdgeStyle;rounded=0;orthogonalLoop=1;jettySize=auto;html=1;" parent="1" source="2I05ab8oT2TBy5zT0fwJ-22" target="2I05ab8oT2TBy5zT0fwJ-24" edge="1">
          <mxGeometry relative="1" as="geometry" />
        </mxCell>
        <mxCell id="2I05ab8oT2TBy5zT0fwJ-22" value="Submit PR&lt;br&gt;(Partners)" style="whiteSpace=wrap;html=1;" parent="1" vertex="1">
          <mxGeometry x="80" y="614" width="120" height="60" as="geometry" />
        </mxCell>
        <mxCell id="2I05ab8oT2TBy5zT0fwJ-27" value="" style="edgeStyle=orthogonalEdgeStyle;rounded=0;orthogonalLoop=1;jettySize=auto;html=1;" parent="1" source="2I05ab8oT2TBy5zT0fwJ-24" target="2I05ab8oT2TBy5zT0fwJ-26" edge="1">
          <mxGeometry relative="1" as="geometry" />
        </mxCell>
        <mxCell id="2I05ab8oT2TBy5zT0fwJ-24" value="Run Automated&lt;br&gt;test" style="whiteSpace=wrap;html=1;" parent="1" vertex="1">
          <mxGeometry x="270" y="614" width="120" height="60" as="geometry" />
        </mxCell>
        <mxCell id="2I05ab8oT2TBy5zT0fwJ-29" value="" style="edgeStyle=orthogonalEdgeStyle;rounded=0;orthogonalLoop=1;jettySize=auto;html=1;" parent="1" source="2I05ab8oT2TBy5zT0fwJ-26" target="2I05ab8oT2TBy5zT0fwJ-28" edge="1">
          <mxGeometry relative="1" as="geometry" />
        </mxCell>
        <mxCell id="2I05ab8oT2TBy5zT0fwJ-26" value="Merge to&amp;nbsp;&lt;br&gt;Main&lt;br&gt;Branch" style="whiteSpace=wrap;html=1;" parent="1" vertex="1">
          <mxGeometry x="440" y="614" width="120" height="60" as="geometry" />
        </mxCell>
        <mxCell id="2I05ab8oT2TBy5zT0fwJ-31" value="" style="edgeStyle=orthogonalEdgeStyle;rounded=0;orthogonalLoop=1;jettySize=auto;html=1;" parent="1" source="2I05ab8oT2TBy5zT0fwJ-28" edge="1" target="2I05ab8oT2TBy5zT0fwJ-44">
          <mxGeometry relative="1" as="geometry">
            <mxPoint x="740" y="740" as="targetPoint" />
          </mxGeometry>
        </mxCell>
        <mxCell id="2I05ab8oT2TBy5zT0fwJ-28" value="Obtain final approval&lt;br&gt;to publish" style="whiteSpace=wrap;html=1;" parent="1" vertex="1">
          <mxGeometry x="625" y="614" width="120" height="60" as="geometry" />
        </mxCell>
        <mxCell id="2I05ab8oT2TBy5zT0fwJ-33" value="" style="edgeStyle=orthogonalEdgeStyle;rounded=0;orthogonalLoop=1;jettySize=auto;html=1;" parent="1" source="2I05ab8oT2TBy5zT0fwJ-30" target="2I05ab8oT2TBy5zT0fwJ-32" edge="1">
          <mxGeometry relative="1" as="geometry" />
        </mxCell>
        <mxCell id="2I05ab8oT2TBy5zT0fwJ-36" value="Yes" style="edgeLabel;html=1;align=center;verticalAlign=middle;resizable=0;points=[];" parent="2I05ab8oT2TBy5zT0fwJ-33" vertex="1" connectable="0">
          <mxGeometry x="0.1077" relative="1" as="geometry">
            <mxPoint x="11" as="offset" />
          </mxGeometry>
        </mxCell>
        <mxCell id="2I05ab8oT2TBy5zT0fwJ-38" value="" style="edgeStyle=orthogonalEdgeStyle;rounded=0;orthogonalLoop=1;jettySize=auto;html=1;" parent="1" source="2I05ab8oT2TBy5zT0fwJ-30" target="2I05ab8oT2TBy5zT0fwJ-37" edge="1">
          <mxGeometry relative="1" as="geometry" />
        </mxCell>
        <mxCell id="2I05ab8oT2TBy5zT0fwJ-48" value="No" style="edgeLabel;html=1;align=center;verticalAlign=middle;resizable=0;points=[];" parent="2I05ab8oT2TBy5zT0fwJ-38" vertex="1" connectable="0">
          <mxGeometry x="-0.45" relative="1" as="geometry">
            <mxPoint y="9" as="offset" />
          </mxGeometry>
        </mxCell>
        <mxCell id="2I05ab8oT2TBy5zT0fwJ-30" value="Publish to&amp;nbsp;&lt;br&gt;Marketplace?" style="rhombus;whiteSpace=wrap;html=1;" parent="1" vertex="1">
          <mxGeometry x="456" y="835" width="90" height="90" as="geometry" />
        </mxCell>
        <mxCell id="2I05ab8oT2TBy5zT0fwJ-35" value="" style="edgeStyle=orthogonalEdgeStyle;rounded=0;orthogonalLoop=1;jettySize=auto;html=1;" parent="1" source="2I05ab8oT2TBy5zT0fwJ-32" target="2I05ab8oT2TBy5zT0fwJ-34" edge="1">
          <mxGeometry relative="1" as="geometry" />
        </mxCell>
        <mxCell id="2I05ab8oT2TBy5zT0fwJ-32" value="MP&lt;br&gt;Publishing &lt;br&gt;process" style="whiteSpace=wrap;html=1;" parent="1" vertex="1">
          <mxGeometry x="271" y="850" width="120" height="60" as="geometry" />
        </mxCell>
        <mxCell id="2I05ab8oT2TBy5zT0fwJ-34" value="End" style="ellipse;whiteSpace=wrap;html=1;" parent="1" vertex="1">
          <mxGeometry x="131" y="840" width="80" height="80" as="geometry" />
        </mxCell>
        <mxCell id="2I05ab8oT2TBy5zT0fwJ-37" value="Partner&lt;br&gt;publishes&lt;br&gt;solution&lt;br&gt;on their &lt;br&gt;MP" style="ellipse;whiteSpace=wrap;html=1;fillColor=#f8cecc;strokeColor=#b85450;" parent="1" vertex="1">
          <mxGeometry x="461" y="975" width="80" height="80" as="geometry" />
        </mxCell>
        <mxCell id="2I05ab8oT2TBy5zT0fwJ-43" value="" style="edgeStyle=orthogonalEdgeStyle;rounded=0;orthogonalLoop=1;jettySize=auto;html=1;" parent="1" source="2I05ab8oT2TBy5zT0fwJ-42" target="2I05ab8oT2TBy5zT0fwJ-22" edge="1">
          <mxGeometry relative="1" as="geometry" />
        </mxCell>
        <mxCell id="2I05ab8oT2TBy5zT0fwJ-42" value="Build&lt;br&gt;Solution code&lt;br&gt;Check-in&lt;br&gt;code periodically" style="shape=process;whiteSpace=wrap;html=1;backgroundOutline=1;" parent="1" vertex="1">
          <mxGeometry x="80" y="520" width="120" height="60" as="geometry" />
        </mxCell>
        <mxCell id="2I05ab8oT2TBy5zT0fwJ-46" value="" style="edgeStyle=orthogonalEdgeStyle;rounded=0;orthogonalLoop=1;jettySize=auto;html=1;" parent="1" source="2I05ab8oT2TBy5zT0fwJ-44" target="2I05ab8oT2TBy5zT0fwJ-45" edge="1">
          <mxGeometry relative="1" as="geometry" />
        </mxCell>
        <mxCell id="2I05ab8oT2TBy5zT0fwJ-44" value="Generate&lt;br style=&quot;border-color: var(--border-color);&quot;&gt;FTR" style="rounded=1;whiteSpace=wrap;html=1;" parent="1" vertex="1">
          <mxGeometry x="625" y="740" width="120" height="60" as="geometry" />
        </mxCell>
        <mxCell id="2I05ab8oT2TBy5zT0fwJ-47" value="" style="edgeStyle=orthogonalEdgeStyle;rounded=0;orthogonalLoop=1;jettySize=auto;html=1;" parent="1" source="2I05ab8oT2TBy5zT0fwJ-45" target="2I05ab8oT2TBy5zT0fwJ-30" edge="1">
          <mxGeometry relative="1" as="geometry" />
        </mxCell>
        <mxCell id="2I05ab8oT2TBy5zT0fwJ-45" value="Submit for FTR&lt;br style=&quot;border-color: var(--border-color);&quot;&gt;Approval" style="rounded=1;whiteSpace=wrap;html=1;" parent="1" vertex="1">
          <mxGeometry x="441" y="740" width="120" height="60" as="geometry" />
        </mxCell>
      </root>
    </mxGraphModel>
  </diagram>
</mxfile>
